<svg width="390" height="304" viewBox="0 0 390 304" fill="none" xmlns="http://www.w3.org/2000/svg">
<g filter="url(#filter0_d_3_8168)">
<g clip-path="url(#clip0_3_8168)">
<path d="M15.8507 38.1458C15.8507 31.393 22.0803 25.9187 29.7648 25.9187H360.225C367.91 25.9187 374.14 31.393 374.14 38.1458V262.056C374.14 268.809 367.91 274.283 360.225 274.283H29.7648C22.0803 274.283 15.8507 268.809 15.8507 262.056V38.1458Z" fill="white"/>
<path opacity="0.12" d="M374.14 102.316C374.14 102.316 297.768 104.614 256.463 122.077C215.157 139.539 173.066 167.619 130.463 193.447C65.7542 222.25 15.8507 220.557 15.8507 220.557V261.997C15.8507 268.783 22.0803 274.283 29.7648 274.283H360.225C367.91 274.283 374.14 268.783 374.14 261.997V102.316Z" fill="url(#paint0_linear_3_8168)"/>
<path fill-rule="evenodd" clip-rule="evenodd" d="M360.225 26.6829H29.7648C22.5606 26.6829 16.7203 31.815 16.7203 38.1458V262.056C16.7203 268.386 22.5606 273.519 29.7648 273.519H360.225C367.429 273.519 373.27 268.386 373.27 262.056V38.1458C373.27 31.815 367.429 26.6829 360.225 26.6829ZM29.7648 25.9187C22.0803 25.9187 15.8507 31.393 15.8507 38.1458V262.056C15.8507 268.809 22.0803 274.283 29.7648 274.283H360.225C367.91 274.283 374.14 268.809 374.14 262.056V38.1458C374.14 31.393 367.91 25.9187 360.225 25.9187H29.7648Z" fill="url(#paint1_linear_3_8168)"/>
<path fill-rule="evenodd" clip-rule="evenodd" d="M391.996 229.074H-3.1582L-3.1582 228.242H391.996V229.074Z" fill="#CEDDFF"/>
<path fill-rule="evenodd" clip-rule="evenodd" d="M391.996 181.196H-3.1582L-3.1582 180.363H391.996V181.196Z" fill="#CEDDFF"/>
<path fill-rule="evenodd" clip-rule="evenodd" d="M391.996 133.313H-3.1582L-3.1582 132.48H391.996V133.313Z" fill="#CEDDFF"/>
<path d="M28.0043 59.614V49.4322H34.6264V50.9784H29.8487V53.7426H34.2834V55.2887H29.8487V58.0678H34.6662V59.614H28.0043ZM38.2283 55.1396V59.614H36.4286V51.9776H38.1488V53.2752H38.2383C38.4139 52.8477 38.694 52.508 39.0785 52.2561C39.4663 52.0042 39.9452 51.8782 40.5153 51.8782C41.0423 51.8782 41.5013 51.9909 41.8924 52.2163C42.2868 52.4417 42.5917 52.7681 42.8072 53.1957C43.0259 53.6232 43.1336 54.1419 43.1303 54.7518V59.614H41.3306V55.0302C41.3306 54.5198 41.198 54.1204 40.9329 53.8321C40.671 53.5437 40.3081 53.3995 39.8441 53.3995C39.5292 53.3995 39.2492 53.4691 39.0039 53.6083C38.762 53.7442 38.5714 53.9414 38.4322 54.2C38.2963 54.4585 38.2283 54.7717 38.2283 55.1396ZM48.2809 62.6367C47.6346 62.6367 47.0794 62.5489 46.6154 62.3732C46.1514 62.2009 45.7785 61.9689 45.4968 61.6772C45.2151 61.3856 45.0195 61.0624 44.9102 60.7078L46.5309 60.315C46.6038 60.4642 46.7099 60.6116 46.8491 60.7575C46.9883 60.9066 47.1755 61.0293 47.4109 61.1254C47.6495 61.2248 47.9495 61.2745 48.3107 61.2745C48.8211 61.2745 49.2437 61.1502 49.5785 60.9017C49.9132 60.6564 50.0806 60.252 50.0806 59.6886V58.2419H49.9911C49.8983 58.4275 49.7624 58.618 49.5835 58.8136C49.4078 59.0091 49.1741 59.1732 48.8825 59.3058C48.5941 59.4384 48.2312 59.5046 47.7937 59.5046C47.207 59.5046 46.6751 59.3671 46.1978 59.092C45.7238 58.8136 45.346 58.3993 45.0643 57.8491C44.7859 57.2956 44.6467 56.6029 44.6467 55.771C44.6467 54.9324 44.7859 54.2248 45.0643 53.6481C45.346 53.0681 45.7255 52.6289 46.2028 52.3306C46.68 52.029 47.212 51.8782 47.7987 51.8782C48.2461 51.8782 48.614 51.9544 48.9023 52.1069C49.194 52.2561 49.426 52.4367 49.5984 52.6488C49.7707 52.8576 49.9016 53.0548 49.9911 53.2404H50.0906V51.9776H51.8654V59.7383C51.8654 60.3912 51.7096 60.9315 51.3981 61.359C51.0865 61.7866 50.6606 62.1064 50.1204 62.3186C49.5801 62.5307 48.967 62.6367 48.2809 62.6367ZM48.2958 58.0927C48.677 58.0927 49.0018 57.9999 49.2702 57.8143C49.5387 57.6287 49.7425 57.3619 49.8817 57.0139C50.021 56.6659 50.0906 56.2482 50.0906 55.761C50.0906 55.2804 50.021 54.8595 49.8817 54.4982C49.7459 54.137 49.5437 53.8569 49.2752 53.658C49.0101 53.4559 48.6836 53.3548 48.2958 53.3548C47.8948 53.3548 47.56 53.4592 47.2915 53.668C47.0231 53.8768 46.8209 54.1635 46.685 54.5281C46.5491 54.8893 46.4812 55.3003 46.4812 55.761C46.4812 56.2284 46.5491 56.6377 46.685 56.989C46.8242 57.337 47.0281 57.6088 47.2965 57.8044C47.5683 57.9966 47.9014 58.0927 48.2958 58.0927ZM55.5096 49.4322V59.614H53.7099V49.4322H55.5096ZM57.3603 59.614V51.9776H59.16V59.614H57.3603ZM58.2651 50.8938C57.9801 50.8938 57.7348 50.7994 57.5293 50.6105C57.3238 50.4182 57.2211 50.1879 57.2211 49.9194C57.2211 49.6476 57.3238 49.4173 57.5293 49.2284C57.7348 49.0361 57.9801 48.94 58.2651 48.94C58.5534 48.94 58.7987 49.0361 59.0009 49.2284C59.2064 49.4173 59.3091 49.6476 59.3091 49.9194C59.3091 50.1879 59.2064 50.4182 59.0009 50.6105C58.7987 50.7994 58.5534 50.8938 58.2651 50.8938ZM67.0462 53.9961L65.4055 54.1751C65.3591 54.0094 65.2779 53.8536 65.1619 53.7078C65.0492 53.5619 64.8968 53.4443 64.7045 53.3548C64.5123 53.2653 64.277 53.2205 63.9986 53.2205C63.6241 53.2205 63.3092 53.3018 63.054 53.4642C62.8021 53.6266 62.6778 53.837 62.6811 54.0955C62.6778 54.3176 62.759 54.4982 62.9247 54.6375C63.0938 54.7767 63.3722 54.891 63.7599 54.9805L65.0625 55.2589C65.785 55.4147 66.322 55.6616 66.6733 55.9997C67.0279 56.3377 67.2069 56.7802 67.2102 57.3271C67.2069 57.8077 67.0661 58.2319 66.7876 58.5998C66.5125 58.9644 66.1297 59.2494 65.6392 59.4549C65.1487 59.6604 64.5852 59.7632 63.9489 59.7632C63.0142 59.7632 62.2618 59.5676 61.6918 59.1765C61.1217 58.7821 60.782 58.2336 60.6726 57.5309L62.4276 57.3619C62.5071 57.7066 62.6761 57.9668 62.9347 58.1424C63.1932 58.3181 63.5296 58.4059 63.9439 58.4059C64.3714 58.4059 64.7145 58.3181 64.973 58.1424C65.2348 57.9668 65.3658 57.7497 65.3658 57.4911C65.3658 57.2724 65.2813 57.0918 65.1122 56.9492C64.9465 56.8067 64.688 56.6973 64.3366 56.6211L63.0341 56.3477C62.3016 56.1952 61.7597 55.9384 61.4084 55.5771C61.0571 55.2125 60.883 54.7518 60.8864 54.195C60.883 53.7243 61.0107 53.3167 61.2692 52.972C61.531 52.624 61.8939 52.3555 62.358 52.1666C62.8253 51.9743 63.3639 51.8782 63.9737 51.8782C64.8686 51.8782 65.5729 52.0688 66.0866 52.45C66.6037 52.8311 66.9235 53.3465 67.0462 53.9961ZM70.494 55.1396V59.614H68.6942V49.4322H70.4542V53.2752H70.5437C70.7227 52.8444 70.9994 52.5046 71.3739 52.2561C71.7518 52.0042 72.2324 51.8782 72.8157 51.8782C73.346 51.8782 73.8084 51.9893 74.2028 52.2113C74.5972 52.4334 74.9021 52.7582 75.1175 53.1857C75.3363 53.6133 75.4457 54.1353 75.4457 54.7518V59.614H73.646V55.0302C73.646 54.5165 73.5134 54.1171 73.2482 53.8321C72.9864 53.5437 72.6185 53.3995 72.1445 53.3995C71.8263 53.3995 71.5413 53.4691 71.2894 53.6083C71.0408 53.7442 70.8453 53.9414 70.7028 54.2C70.5636 54.4585 70.494 54.7717 70.494 55.1396ZM33.9602 71.9961L32.3196 72.1751C32.2732 72.0094 32.192 71.8536 32.076 71.7078C31.9633 71.5619 31.8108 71.4443 31.6186 71.3548C31.4264 71.2653 31.1911 71.2205 30.9126 71.2205C30.5381 71.2205 30.2232 71.3018 29.968 71.4642C29.7161 71.6266 29.5919 71.837 29.5952 72.0955C29.5919 72.3176 29.6731 72.4982 29.8388 72.6375C30.0078 72.7767 30.2862 72.891 30.674 72.9805L31.9766 73.2589C32.6991 73.4147 33.236 73.6616 33.5874 73.9997C33.942 74.3377 34.121 74.7802 34.1243 75.3271C34.121 75.8077 33.9801 76.2319 33.7017 76.5998C33.4266 76.9644 33.0438 77.2494 32.5533 77.4549C32.0627 77.6604 31.4993 77.7632 30.8629 77.7632C29.9283 77.7632 29.1759 77.5676 28.6058 77.1765C28.0357 76.7821 27.696 76.2336 27.5866 75.5309L29.3416 75.3619C29.4212 75.7066 29.5902 75.9668 29.8487 76.1424C30.1072 76.3181 30.4437 76.4059 30.858 76.4059C31.2855 76.4059 31.6286 76.3181 31.8871 76.1424C32.1489 75.9668 32.2798 75.7497 32.2798 75.4911C32.2798 75.2724 32.1953 75.0918 32.0263 74.9492C31.8606 74.8067 31.602 74.6973 31.2507 74.6211L29.9482 74.3477C29.2157 74.1952 28.6738 73.9384 28.3224 73.5771C27.9711 73.2125 27.7971 72.7518 27.8004 72.195C27.7971 71.7243 27.9247 71.3167 28.1832 70.972C28.4451 70.624 28.808 70.3555 29.272 70.1666C29.7393 69.9743 30.2779 69.8782 30.8878 69.8782C31.7827 69.8782 32.487 70.0688 33.0007 70.45C33.5178 70.8311 33.8376 71.3465 33.9602 71.9961ZM38.9393 77.7632C38.177 77.7632 37.5224 77.5958 36.9755 77.261C36.4319 76.9263 36.0127 76.4639 35.7177 75.874C35.426 75.2807 35.2802 74.5979 35.2802 73.8257C35.2802 73.0501 35.4293 72.3657 35.7276 71.7724C36.0259 71.1758 36.4469 70.7118 36.9904 70.3803C37.5373 70.0456 38.1836 69.8782 38.9293 69.8782C39.5491 69.8782 40.0977 69.9926 40.5749 70.2213C41.0555 70.4466 41.4383 70.7665 41.7234 71.1808C42.0084 71.5918 42.1708 72.0723 42.2106 72.6225H40.4904C40.4208 72.2546 40.2551 71.9481 39.9933 71.7028C39.7347 71.4542 39.3884 71.3299 38.9542 71.3299C38.5863 71.3299 38.2631 71.4294 37.9847 71.6282C37.7063 71.8238 37.4892 72.1055 37.3335 72.4734C37.181 72.8413 37.1048 73.2821 37.1048 73.7958C37.1048 74.3162 37.181 74.7636 37.3335 75.1382C37.4859 75.5094 37.6997 75.7961 37.9748 75.9982C38.2532 76.1971 38.5797 76.2965 38.9542 76.2965C39.2193 76.2965 39.4563 76.2468 39.6651 76.1474C39.8772 76.0446 40.0546 75.8972 40.1971 75.7049C40.3396 75.5127 40.4374 75.279 40.4904 75.0039H42.2106C42.1675 75.5442 42.0084 76.0231 41.7333 76.4407C41.4582 76.855 41.0837 77.1798 40.6097 77.4152C40.1358 77.6472 39.579 77.7632 38.9393 77.7632ZM47.0194 77.7632C46.2736 77.7632 45.6273 77.5991 45.0804 77.271C44.5336 76.9428 44.1093 76.4838 43.8077 75.8938C43.5094 75.3039 43.3603 74.6145 43.3603 73.8257C43.3603 73.0368 43.5094 72.3458 43.8077 71.7525C44.1093 71.1592 44.5336 70.6985 45.0804 70.3704C45.6273 70.0423 46.2736 69.8782 47.0194 69.8782C47.7651 69.8782 48.4114 70.0423 48.9583 70.3704C49.5051 70.6985 49.9277 71.1592 50.226 71.7525C50.5276 72.3458 50.6784 73.0368 50.6784 73.8257C50.6784 74.6145 50.5276 75.3039 50.226 75.8938C49.9277 76.4838 49.5051 76.9428 48.9583 77.271C48.4114 77.5991 47.7651 77.7632 47.0194 77.7632ZM47.0293 76.3214C47.4337 76.3214 47.7717 76.2104 48.0435 75.9883C48.3153 75.7629 48.5175 75.4613 48.65 75.0835C48.7859 74.7056 48.8539 74.2847 48.8539 73.8207C48.8539 73.3534 48.7859 72.9308 48.65 72.5529C48.5175 72.1718 48.3153 71.8685 48.0435 71.6431C47.7717 71.4178 47.4337 71.3051 47.0293 71.3051C46.615 71.3051 46.2703 71.4178 45.9952 71.6431C45.7234 71.8685 45.5196 72.1718 45.3837 72.5529C45.2511 72.9308 45.1848 73.3534 45.1848 73.8207C45.1848 74.2847 45.2511 74.7056 45.3837 75.0835C45.5196 75.4613 45.7234 75.7629 45.9952 75.9883C46.2703 76.2104 46.615 76.3214 47.0293 76.3214ZM52.206 77.614V69.9776H53.951V71.2504H54.0305C54.1697 70.8096 54.4084 70.4698 54.7464 70.2312C55.0878 69.9893 55.4773 69.8683 55.9148 69.8683C56.0142 69.8683 56.1252 69.8732 56.2479 69.8832C56.3738 69.8898 56.4782 69.9014 56.5611 69.918V71.5735C56.4848 71.547 56.3639 71.5238 56.1982 71.5039C56.0357 71.4807 55.8783 71.4691 55.7259 71.4691C55.3977 71.4691 55.1027 71.5404 54.8409 71.6829C54.5824 71.8221 54.3786 72.016 54.2294 72.2646C54.0803 72.5132 54.0057 72.7999 54.0057 73.1247V77.614H52.206ZM60.823 77.7632C60.0574 77.7632 59.3961 77.6041 58.8393 77.2859C58.2858 76.9644 57.8599 76.5103 57.5616 75.9237C57.2633 75.3337 57.1142 74.6393 57.1142 73.8406C57.1142 73.0551 57.2633 72.3657 57.5616 71.7724C57.8632 71.1758 58.2842 70.7118 58.8244 70.3803C59.3646 70.0456 59.9993 69.8782 60.7285 69.8782C61.1992 69.8782 61.6433 69.9544 62.0609 70.1069C62.4818 70.2561 62.853 70.4881 63.1745 70.8029C63.4993 71.1178 63.7546 71.5188 63.9402 72.0061C64.1258 72.49 64.2186 73.0667 64.2186 73.7362V74.288H57.9593V73.075H62.4934C62.4901 72.7303 62.4155 72.4237 62.2697 72.1552C62.1239 71.8834 61.92 71.6696 61.6582 71.5139C61.3997 71.3581 61.0981 71.2802 60.7534 71.2802C60.3855 71.2802 60.0623 71.3697 59.7839 71.5487C59.5055 71.7243 59.2884 71.9563 59.1326 72.2447C58.9802 72.5297 58.9023 72.8429 58.899 73.1843V74.2433C58.899 74.6874 58.9802 75.0686 59.1426 75.3867C59.305 75.7016 59.532 75.9436 59.8237 76.1126C60.1154 76.2783 60.4567 76.3612 60.8478 76.3612C61.1097 76.3612 61.3467 76.3247 61.5588 76.2518C61.7709 76.1756 61.9548 76.0645 62.1106 75.9187C62.2664 75.7729 62.3841 75.5922 62.4636 75.3768L64.144 75.5657C64.0379 76.0098 63.8358 76.3976 63.5375 76.7291C63.2425 77.0572 62.8646 77.3124 62.4039 77.4947C61.9432 77.6737 61.4163 77.7632 60.823 77.7632ZM67.854 76.222L67.7894 76.7688C67.743 77.1865 67.6602 77.6107 67.5408 78.0416C67.4248 78.4758 67.3022 78.8751 67.1729 79.2397C67.0437 79.6043 66.9393 79.891 66.8597 80.0998H65.6467C65.6931 79.8976 65.756 79.6225 65.8356 79.2745C65.9184 78.9265 65.998 78.5354 66.0742 78.1012C66.1504 77.667 66.2018 77.2262 66.2283 76.7788L66.2631 76.222H67.854ZM78.4522 75.7049V75.168C78.4522 74.7736 78.5351 74.4107 78.7008 74.0792C78.8699 73.7478 79.1151 73.481 79.4366 73.2788C79.7581 73.0766 80.1475 72.9755 80.6049 72.9755C81.0756 72.9755 81.47 73.0766 81.7882 73.2788C82.1064 73.4776 82.3467 73.7428 82.5091 74.0742C82.6748 74.4057 82.7576 74.7703 82.7576 75.168V75.7049C82.7576 76.0993 82.6748 76.4623 82.5091 76.7937C82.3433 77.1251 82.0997 77.3919 81.7782 77.5941C81.4601 77.7963 81.069 77.8974 80.6049 77.8974C80.1409 77.8974 79.7482 77.7963 79.4267 77.5941C79.1052 77.3919 78.8616 77.1251 78.6958 76.7937C78.5334 76.4623 78.4522 76.0993 78.4522 75.7049ZM79.7498 75.168V75.7049C79.7498 75.9668 79.8128 76.2071 79.9387 76.4258C80.0647 76.6446 80.2868 76.7539 80.6049 76.7539C80.9264 76.7539 81.1468 76.6462 81.2662 76.4308C81.3888 76.212 81.4501 75.9701 81.4501 75.7049V75.168C81.4501 74.9028 81.3921 74.6609 81.2761 74.4421C81.1601 74.2201 80.9364 74.109 80.6049 74.109C80.2934 74.109 80.073 74.2201 79.9437 74.4421C79.8145 74.6609 79.7498 74.9028 79.7498 75.168ZM73.2768 69.8782V69.3413C73.2768 68.9436 73.3613 68.579 73.5304 68.2475C73.6994 67.9161 73.9447 67.6509 74.2662 67.4521C74.5877 67.2499 74.9771 67.1488 75.4345 67.1488C75.9018 67.1488 76.2946 67.2499 76.6127 67.4521C76.9342 67.6509 77.1762 67.9161 77.3386 68.2475C77.501 68.579 77.5822 68.9436 77.5822 69.3413V69.8782C77.5822 70.2759 77.4993 70.6405 77.3336 70.972C77.1712 71.3001 76.9293 71.5636 76.6078 71.7625C76.2863 71.9613 75.8952 72.0607 75.4345 72.0607C74.9672 72.0607 74.5727 71.9613 74.2512 71.7625C73.9331 71.5636 73.6911 71.2984 73.5254 70.967C73.3597 70.6356 73.2768 70.2726 73.2768 69.8782ZM74.5843 69.3413V69.8782C74.5843 70.1434 74.6457 70.3853 74.7683 70.6041C74.8942 70.8195 75.1163 70.9272 75.4345 70.9272C75.7527 70.9272 75.9714 70.8195 76.0907 70.6041C76.2134 70.3853 76.2747 70.1434 76.2747 69.8782V69.3413C76.2747 69.0761 76.2167 68.8342 76.1007 68.6154C75.9847 68.3934 75.7626 68.2823 75.4345 68.2823C75.1196 68.2823 74.8992 68.3934 74.7733 68.6154C74.6473 68.8375 74.5843 69.0794 74.5843 69.3413ZM73.8436 77.614L80.8436 67.4322H82.0865L75.0865 77.614H73.8436Z" fill="black"/>
<g filter="url(#filter1_dd_3_8168)">
<mask id="path-9-inside-1_3_8168" fill="white">
<path d="M38.7012 157.447C38.7012 153.029 42.2829 149.447 46.7012 149.447H85.7012C90.1194 149.447 93.7012 153.029 93.7012 157.447V190.447C93.7012 194.866 90.1194 198.447 85.7012 198.447H46.7012C42.2829 198.447 38.7012 194.866 38.7012 190.447V157.447Z"/>
</mask>
<path d="M38.7012 157.447C38.7012 153.029 42.2829 149.447 46.7012 149.447H85.7012C90.1194 149.447 93.7012 153.029 93.7012 157.447V190.447C93.7012 194.866 90.1194 198.447 85.7012 198.447H46.7012C42.2829 198.447 38.7012 194.866 38.7012 190.447V157.447Z" fill="white" shape-rendering="crispEdges"/>
<path d="M46.7012 149.447V150.447H85.7012V149.447V148.447H46.7012V149.447ZM93.7012 157.447H92.7012V190.447H93.7012H94.7012V157.447H93.7012ZM85.7012 198.447V197.447H46.7012V198.447V199.447H85.7012V198.447ZM38.7012 190.447H39.7012V157.447H38.7012H37.7012V190.447H38.7012ZM46.7012 198.447V197.447C42.8352 197.447 39.7012 194.313 39.7012 190.447H38.7012H37.7012C37.7012 195.418 41.7306 199.447 46.7012 199.447V198.447ZM93.7012 190.447H92.7012C92.7012 194.313 89.5672 197.447 85.7012 197.447V198.447V199.447C90.6717 199.447 94.7012 195.418 94.7012 190.447H93.7012ZM85.7012 149.447V150.447C89.5672 150.447 92.7012 153.581 92.7012 157.447H93.7012H94.7012C94.7012 152.477 90.6717 148.447 85.7012 148.447V149.447ZM46.7012 149.447V148.447C41.7306 148.447 37.7012 152.477 37.7012 157.447H38.7012H39.7012C39.7012 153.581 42.8352 150.447 46.7012 150.447V149.447Z" fill="#CEDDFF" mask="url(#path-9-inside-1_3_8168)"/>
<path d="M65.7012 192.497L71.358 198.154L65.7012 203.811L60.0443 198.154L65.7012 192.497Z" fill="white"/>
<path fill-rule="evenodd" clip-rule="evenodd" d="M60.0443 198.154L65.7012 203.811L71.358 198.154L70.6509 197.447L65.7012 202.397L60.7514 197.447L60.0443 198.154Z" fill="#CEDDFF"/>
<path d="M57.3951 160.175V167.447H56.2232L52.7963 162.493H52.736V167.447H51.4185V160.175H52.5975L56.0208 165.132H56.0847V160.175H57.3951ZM61.1531 167.554C60.6204 167.554 60.1587 167.437 59.7681 167.202C59.3775 166.968 59.0745 166.64 58.859 166.219C58.646 165.797 58.5394 165.305 58.5394 164.741C58.5394 164.178 58.646 163.684 58.859 163.26C59.0745 162.837 59.3775 162.508 59.7681 162.273C60.1587 162.039 60.6204 161.922 61.1531 161.922C61.6857 161.922 62.1474 162.039 62.538 162.273C62.9286 162.508 63.2305 162.837 63.4435 163.26C63.659 163.684 63.7667 164.178 63.7667 164.741C63.7667 165.305 63.659 165.797 63.4435 166.219C63.2305 166.64 62.9286 166.968 62.538 167.202C62.1474 167.437 61.6857 167.554 61.1531 167.554ZM61.1602 166.524C61.449 166.524 61.6905 166.445 61.8846 166.286C62.0787 166.125 62.2231 165.91 62.3178 165.64C62.4149 165.37 62.4634 165.069 62.4634 164.738C62.4634 164.404 62.4149 164.102 62.3178 163.832C62.2231 163.56 62.0787 163.343 61.8846 163.182C61.6905 163.021 61.449 162.941 61.1602 162.941C60.8642 162.941 60.618 163.021 60.4215 163.182C60.2274 163.343 60.0818 163.56 59.9847 163.832C59.89 164.102 59.8427 164.404 59.8427 164.738C59.8427 165.069 59.89 165.37 59.9847 165.64C60.0818 165.91 60.2274 166.125 60.4215 166.286C60.618 166.445 60.8642 166.524 61.1602 166.524ZM65.8272 167.447L64.286 161.993H65.5964L66.5552 165.828H66.6049L67.585 161.993H68.8812L69.8613 165.807H69.9146L70.8592 161.993H72.1731L70.6284 167.447H69.2896L68.2669 163.761H68.1923L67.1696 167.447H65.8272Z" fill="#6B7280"/>
<path d="M55.4341 185.586C54.9105 185.583 54.405 185.495 53.9178 185.323C53.4339 185.151 52.9997 184.871 52.6152 184.483C52.2308 184.095 51.9258 183.581 51.7005 182.942C51.4784 182.302 51.3674 181.516 51.3674 180.585C51.3707 179.73 51.4685 178.966 51.6607 178.293C51.8562 177.617 52.1346 177.044 52.4959 176.573C52.8605 176.102 53.2963 175.744 53.8034 175.499C54.3105 175.251 54.879 175.126 55.5087 175.126C56.1882 175.126 56.7881 175.259 57.3084 175.524C57.8288 175.786 58.2464 176.142 58.5613 176.593C58.8794 177.044 59.0717 177.549 59.138 178.109H57.0151C56.9322 177.755 56.7582 177.476 56.4931 177.274C56.2279 177.072 55.8998 176.971 55.5087 176.971C54.8458 176.971 54.342 177.259 53.9973 177.836C53.656 178.412 53.4819 179.196 53.4753 180.187H53.5449C53.6974 179.886 53.9029 179.629 54.1614 179.417C54.4232 179.201 54.7199 179.037 55.0513 178.925C55.3861 178.809 55.7391 178.751 56.1103 178.751C56.7135 178.751 57.2504 178.893 57.7211 179.178C58.1917 179.46 58.5629 179.848 58.8347 180.341C59.1065 180.835 59.2424 181.4 59.2424 182.037C59.2424 182.726 59.0816 183.339 58.7601 183.876C58.4419 184.413 57.9962 184.834 57.4228 185.139C56.8527 185.441 56.1898 185.59 55.4341 185.586ZM55.4242 183.896C55.7556 183.896 56.0523 183.817 56.3141 183.657C56.5759 183.498 56.7814 183.283 56.9306 183.011C57.0797 182.739 57.1543 182.434 57.1543 182.096C57.1543 181.758 57.0797 181.455 56.9306 181.187C56.7847 180.918 56.5826 180.704 56.324 180.545C56.0655 180.386 55.7705 180.307 55.4391 180.307C55.1905 180.307 54.9602 180.353 54.748 180.446C54.5392 180.539 54.3553 180.668 54.1962 180.834C54.0404 180.999 53.9178 181.192 53.8283 181.41C53.7388 181.626 53.6941 181.856 53.6941 182.101C53.6941 182.43 53.7686 182.729 53.9178 183.001C54.0703 183.273 54.2757 183.49 54.5343 183.653C54.7961 183.815 55.0927 183.896 55.4242 183.896ZM64.7608 185.671C63.9057 185.668 63.1699 185.457 62.5534 185.04C61.9403 184.622 61.468 184.017 61.1365 183.225C60.8084 182.433 60.646 181.48 60.6493 180.366C60.6493 179.256 60.8134 178.31 61.1415 177.528C61.473 176.745 61.9453 176.15 62.5584 175.743C63.1749 175.332 63.909 175.126 64.7608 175.126C65.6126 175.126 66.3451 175.332 66.9583 175.743C67.5748 176.154 68.0487 176.75 68.3801 177.532C68.7116 178.311 68.8757 179.256 68.8723 180.366C68.8723 181.483 68.7066 182.438 68.3752 183.23C68.0471 184.022 67.5764 184.627 66.9632 185.045C66.3501 185.462 65.6159 185.671 64.7608 185.671ZM64.7608 183.886C65.3442 183.886 65.8098 183.593 66.1578 183.006C66.5059 182.42 66.6782 181.54 66.6749 180.366C66.6749 179.594 66.5953 178.951 66.4363 178.437C66.2805 177.924 66.0584 177.537 65.7701 177.279C65.485 177.02 65.1486 176.891 64.7608 176.891C64.1808 176.891 63.7168 177.181 63.3688 177.761C63.0208 178.341 62.8451 179.21 62.8418 180.366C62.8418 181.148 62.9197 181.801 63.0755 182.325C63.2346 182.845 63.4583 183.237 63.7466 183.498C64.035 183.757 64.373 183.886 64.7608 183.886ZM75.9805 183.538V183.001C75.9805 182.594 76.0666 182.219 76.239 181.878C76.4147 181.533 76.6682 181.258 76.9996 181.052C77.3344 180.844 77.7421 180.739 78.2227 180.739C78.7099 180.739 79.1192 180.842 79.4506 181.047C79.7854 181.253 80.0373 181.528 80.2063 181.873C80.3787 182.214 80.4648 182.59 80.4648 183.001V183.538C80.4648 183.946 80.3787 184.322 80.2063 184.667C80.034 185.008 79.7804 185.282 79.4457 185.487C79.1109 185.696 78.7032 185.8 78.2227 185.8C77.7354 185.8 77.3261 185.696 76.9947 185.487C76.6632 185.282 76.4113 185.008 76.239 184.667C76.0666 184.322 75.9805 183.946 75.9805 183.538ZM77.4272 183.001V183.538C77.4272 183.773 77.4835 183.996 77.5962 184.204C77.7122 184.413 77.921 184.518 78.2227 184.518C78.5243 184.518 78.7298 184.415 78.8391 184.209C78.9518 184.004 79.0082 183.78 79.0082 183.538V183.001C79.0082 182.759 78.9551 182.534 78.8491 182.325C78.743 182.116 78.5342 182.012 78.2227 182.012C77.9244 182.012 77.7172 182.116 77.6012 182.325C77.4852 182.534 77.4272 182.759 77.4272 183.001ZM70.7553 177.711V177.175C70.7553 176.764 70.8432 176.387 71.0188 176.046C71.1945 175.701 71.448 175.426 71.7795 175.221C72.1142 175.015 72.5186 174.912 72.9925 174.912C73.4831 174.912 73.8941 175.015 74.2255 175.221C74.5569 175.426 74.8088 175.701 74.9812 176.046C75.1535 176.387 75.2397 176.764 75.2397 177.175V177.711C75.2397 178.122 75.1519 178.499 74.9762 178.84C74.8039 179.181 74.5503 179.455 74.2156 179.66C73.8841 179.863 73.4764 179.964 72.9925 179.964C72.5086 179.964 72.0993 179.861 71.7646 179.655C71.4331 179.447 71.1812 179.173 71.0089 178.835C70.8398 178.494 70.7553 178.119 70.7553 177.711ZM72.212 177.175V177.711C72.212 177.953 72.2683 178.177 72.381 178.383C72.497 178.588 72.7009 178.691 72.9925 178.691C73.2975 178.691 73.5046 178.588 73.614 178.383C73.7267 178.177 73.783 177.953 73.783 177.711V177.175C73.783 176.933 73.73 176.707 73.6239 176.498C73.5179 176.29 73.3074 176.185 72.9925 176.185C72.6976 176.185 72.4937 176.291 72.381 176.503C72.2683 176.715 72.212 176.939 72.212 177.175ZM71.4116 185.447L78.4116 175.265H79.7141L72.7141 185.447H71.4116Z" fill="#FF5858"/>
</g>
<g filter="url(#filter2_dd_3_8168)">
<mask id="path-14-inside-2_3_8168" fill="white">
<path d="M279.542 49.2832C279.542 44.8649 283.123 41.2832 287.542 41.2832H334.542C338.96 41.2832 342.542 44.8649 342.542 49.2832V82.2832C342.542 86.7015 338.96 90.2832 334.542 90.2832H287.542C283.123 90.2832 279.542 86.7015 279.542 82.2832V49.2832Z"/>
</mask>
<path d="M279.542 49.2832C279.542 44.8649 283.123 41.2832 287.542 41.2832H334.542C338.96 41.2832 342.542 44.8649 342.542 49.2832V82.2832C342.542 86.7015 338.96 90.2832 334.542 90.2832H287.542C283.123 90.2832 279.542 86.7015 279.542 82.2832V49.2832Z" fill="white" shape-rendering="crispEdges"/>
<path d="M287.542 41.2832V42.2832H334.542V41.2832V40.2832H287.542V41.2832ZM342.542 49.2832H341.542V82.2832H342.542H343.542V49.2832H342.542ZM334.542 90.2832V89.2832H287.542V90.2832V91.2832H334.542V90.2832ZM279.542 82.2832H280.542V49.2832H279.542H278.542V82.2832H279.542ZM287.542 90.2832V89.2832C283.676 89.2832 280.542 86.1492 280.542 82.2832H279.542H278.542C278.542 87.2538 282.571 91.2832 287.542 91.2832V90.2832ZM342.542 82.2832H341.542C341.542 86.1492 338.407 89.2832 334.542 89.2832V90.2832V91.2832C339.512 91.2832 343.542 87.2538 343.542 82.2832H342.542ZM334.542 41.2832V42.2832C338.407 42.2832 341.542 45.4172 341.542 49.2832H342.542H343.542C343.542 44.3126 339.512 40.2832 334.542 40.2832V41.2832ZM287.542 41.2832V40.2832C282.571 40.2832 278.542 44.3126 278.542 49.2832H279.542H280.542C280.542 45.4172 283.676 42.2832 287.542 42.2832V41.2832Z" fill="#CEDDFF" mask="url(#path-14-inside-2_3_8168)"/>
<path d="M311.542 84.3333L317.198 89.9901L311.542 95.647L305.885 89.9901L311.542 84.3333Z" fill="white"/>
<path fill-rule="evenodd" clip-rule="evenodd" d="M305.885 89.9901L311.542 95.647L317.198 89.9901L316.491 89.283L311.542 94.2327L306.592 89.283L305.885 89.9901Z" fill="#CEDDFF"/>
<path d="M292.259 52.0105H293.871L296.03 57.2804H296.115L298.274 52.0105H299.887V59.2832H298.622V54.2868H298.555L296.545 59.2619H295.6L293.591 54.2761H293.523V59.2832H292.259V52.0105ZM303.644 59.3897C303.111 59.3897 302.649 59.2725 302.259 59.0382C301.868 58.8038 301.565 58.4759 301.35 58.0545C301.137 57.6331 301.03 57.1407 301.03 56.5772C301.03 56.0138 301.137 55.5202 301.35 55.0964C301.565 54.6726 301.868 54.3436 302.259 54.1092C302.649 53.8748 303.111 53.7576 303.644 53.7576C304.176 53.7576 304.638 53.8748 305.029 54.1092C305.419 54.3436 305.721 54.6726 305.934 55.0964C306.15 55.5202 306.257 56.0138 306.257 56.5772C306.257 57.1407 306.15 57.6331 305.934 58.0545C305.721 58.4759 305.419 58.8038 305.029 59.0382C304.638 59.2725 304.176 59.3897 303.644 59.3897ZM303.651 58.3599C303.94 58.3599 304.181 58.2806 304.375 58.122C304.569 57.961 304.714 57.7456 304.809 57.4757C304.906 57.2058 304.954 56.9051 304.954 56.5737C304.954 56.2399 304.906 55.938 304.809 55.6681C304.714 55.3959 304.569 55.1793 304.375 55.0183C304.181 54.8573 303.94 54.7768 303.651 54.7768C303.355 54.7768 303.109 54.8573 302.912 55.0183C302.718 55.1793 302.573 55.3959 302.475 55.6681C302.381 55.938 302.333 56.2399 302.333 56.5737C302.333 56.9051 302.381 57.2058 302.475 57.4757C302.573 57.7456 302.718 57.961 302.912 58.122C303.109 58.2806 303.355 58.3599 303.651 58.3599ZM308.634 56.0872V59.2832H307.348V53.8287H308.577V54.7555H308.641C308.767 54.4501 308.967 54.2074 309.241 54.0275C309.518 53.8476 309.86 53.7576 310.268 53.7576C310.644 53.7576 310.972 53.8381 311.251 53.9991C311.533 54.1601 311.751 54.3933 311.905 54.6987C312.061 55.0041 312.138 55.3746 312.135 55.8102V59.2832H310.85V56.0091C310.85 55.6445 310.755 55.3592 310.566 55.1532C310.379 54.9473 310.12 54.8443 309.788 54.8443C309.563 54.8443 309.363 54.894 309.188 54.9934C309.015 55.0905 308.879 55.2314 308.78 55.416C308.683 55.6007 308.634 55.8244 308.634 56.0872ZM316.166 53.8287V54.823H313.03V53.8287H316.166ZM313.804 52.5218H315.09V57.6426C315.09 57.8154 315.116 57.948 315.168 58.0403C315.223 58.1303 315.294 58.1918 315.381 58.225C315.469 58.2581 315.566 58.2747 315.672 58.2747C315.753 58.2747 315.826 58.2688 315.893 58.2569C315.961 58.2451 316.013 58.2344 316.049 58.225L316.265 59.2299C316.197 59.2536 316.098 59.2797 315.971 59.3081C315.845 59.3365 315.691 59.353 315.509 59.3578C315.187 59.3672 314.897 59.3187 314.639 59.2122C314.381 59.1033 314.176 58.9352 314.025 58.7079C313.875 58.4806 313.802 58.1966 313.804 57.8556V52.5218ZM318.644 56.0872V59.2832H317.358V52.0105H318.615V54.7555H318.679C318.807 54.4477 319.005 54.2051 319.272 54.0275C319.542 53.8476 319.885 53.7576 320.302 53.7576C320.681 53.7576 321.011 53.8369 321.293 53.9956C321.575 54.1542 321.792 54.3862 321.946 54.6916C322.103 54.997 322.181 55.3699 322.181 55.8102V59.2832H320.895V56.0091C320.895 55.6421 320.801 55.3568 320.611 55.1532C320.424 54.9473 320.161 54.8443 319.823 54.8443C319.595 54.8443 319.392 54.894 319.212 54.9934C319.034 55.0905 318.895 55.2314 318.793 55.416C318.693 55.6007 318.644 55.8244 318.644 56.0872ZM328.915 52.0105V59.2832H327.598V53.2924H327.555L325.854 54.3791V53.1717L327.662 52.0105H328.915Z" fill="#6B7280"/>
<path d="M296.796 67.1014V77.2832H294.644V69.1447H294.584L292.252 70.6064V68.6973L294.773 67.1014H296.796ZM303.209 77.5069C302.353 77.5036 301.618 77.2931 301.001 76.8755C300.388 76.4579 299.916 75.853 299.584 75.0609C299.256 74.2688 299.094 73.3159 299.097 72.2022C299.097 71.0919 299.261 70.1457 299.589 69.3635C299.921 68.5813 300.393 67.9863 301.006 67.5787C301.623 67.1677 302.357 66.9622 303.209 66.9622C304.06 66.9622 304.793 67.1677 305.406 67.5787C306.023 67.9896 306.496 68.5862 306.828 69.3684C307.159 70.1473 307.323 71.0919 307.32 72.2022C307.32 73.3192 307.154 74.2737 306.823 75.0659C306.495 75.858 306.024 76.4629 305.411 76.8805C304.798 77.2981 304.064 77.5069 303.209 77.5069ZM303.209 75.7221C303.792 75.7221 304.258 75.4288 304.606 74.8422C304.954 74.2555 305.126 73.3755 305.123 72.2022C305.123 71.43 305.043 70.787 304.884 70.2733C304.728 69.7595 304.506 69.3734 304.218 69.1149C303.933 68.8564 303.596 68.7271 303.209 68.7271C302.629 68.7271 302.165 69.0171 301.817 69.5971C301.469 70.1771 301.293 71.0455 301.29 72.2022C301.29 72.9844 301.367 73.6374 301.523 74.161C301.682 74.6814 301.906 75.0725 302.194 75.3343C302.483 75.5929 302.821 75.7221 303.209 75.7221ZM312.847 77.5069C311.992 77.5036 311.256 77.2931 310.64 76.8755C310.027 76.4579 309.554 75.853 309.223 75.0609C308.895 74.2688 308.732 73.3159 308.736 72.2022C308.736 71.0919 308.9 70.1457 309.228 69.3635C309.559 68.5813 310.032 67.9863 310.645 67.5787C311.261 67.1677 311.995 66.9622 312.847 66.9622C313.699 66.9622 314.432 67.1677 315.045 67.5787C315.661 67.9896 316.135 68.5862 316.467 69.3684C316.798 70.1473 316.962 71.0919 316.959 72.2022C316.959 73.3192 316.793 74.2737 316.462 75.0659C316.133 75.858 315.663 76.4629 315.05 76.8805C314.437 77.2981 313.702 77.5069 312.847 77.5069ZM312.847 75.7221C313.431 75.7221 313.896 75.4288 314.244 74.8422C314.592 74.2555 314.765 73.3755 314.761 72.2022C314.761 71.43 314.682 70.787 314.523 70.2733C314.367 69.7595 314.145 69.3734 313.856 69.1149C313.571 68.8564 313.235 68.7271 312.847 68.7271C312.267 68.7271 311.803 69.0171 311.455 69.5971C311.107 70.1771 310.932 71.0455 310.928 72.2022C310.928 72.9844 311.006 73.6374 311.162 74.161C311.321 74.6814 311.545 75.0725 311.833 75.3343C312.121 75.5929 312.459 75.7221 312.847 75.7221ZM324.067 75.3741V74.8372C324.067 74.4295 324.153 74.055 324.325 73.7136C324.501 73.3689 324.755 73.0938 325.086 72.8883C325.421 72.6795 325.828 72.5751 326.309 72.5751C326.796 72.5751 327.206 72.6779 327.537 72.8833C327.872 73.0888 328.124 73.3639 328.293 73.7086C328.465 74.05 328.551 74.4262 328.551 74.8372V75.3741C328.551 75.7818 328.465 76.158 328.293 76.5027C328.12 76.844 327.867 77.1175 327.532 77.323C327.197 77.5318 326.79 77.6362 326.309 77.6362C325.822 77.6362 325.413 77.5318 325.081 77.323C324.75 77.1175 324.498 76.844 324.325 76.5027C324.153 76.158 324.067 75.7818 324.067 75.3741ZM325.514 74.8372V75.3741C325.514 75.6094 325.57 75.8315 325.683 76.0403C325.799 76.2491 326.007 76.3535 326.309 76.3535C326.611 76.3535 326.816 76.2508 326.926 76.0453C327.038 75.8398 327.095 75.6161 327.095 75.3741V74.8372C327.095 74.5952 327.042 74.3699 326.936 74.161C326.829 73.9522 326.621 73.8478 326.309 73.8478C326.011 73.8478 325.804 73.9522 325.688 74.161C325.572 74.3699 325.514 74.5952 325.514 74.8372ZM318.842 69.5474V69.0105C318.842 68.5995 318.93 68.2233 319.105 67.8819C319.281 67.5372 319.534 67.2621 319.866 67.0566C320.201 66.8511 320.605 66.7484 321.079 66.7484C321.569 66.7484 321.98 66.8511 322.312 67.0566C322.643 67.2621 322.895 67.5372 323.068 67.8819C323.24 68.2233 323.326 68.5995 323.326 69.0105V69.5474C323.326 69.9584 323.238 70.3346 323.063 70.676C322.89 71.0173 322.637 71.2908 322.302 71.4963C321.971 71.6984 321.563 71.7995 321.079 71.7995C320.595 71.7995 320.186 71.6968 319.851 71.4913C319.52 71.2825 319.268 71.0091 319.095 70.671C318.926 70.3296 318.842 69.9551 318.842 69.5474ZM320.298 69.0105V69.5474C320.298 69.7894 320.355 70.0131 320.467 70.2186C320.583 70.4241 320.787 70.5268 321.079 70.5268C321.384 70.5268 321.591 70.4241 321.7 70.2186C321.813 70.0131 321.869 69.7894 321.869 69.5474V69.0105C321.869 68.7685 321.816 68.5431 321.71 68.3343C321.604 68.1255 321.394 68.0211 321.079 68.0211C320.784 68.0211 320.58 68.1272 320.467 68.3393C320.355 68.5514 320.298 68.7752 320.298 69.0105ZM319.498 77.2832L326.498 67.1014H327.801L320.801 77.2832H319.498Z" fill="#01BB84"/>
</g>
<path d="M15.6628 220.594C29.9863 220.594 42.4615 220.594 56.323 219.482C169.793 201.758 213.895 105.139 374.498 99.5564" stroke="url(#paint2_linear_3_8168)" stroke-width="3"/>
<path d="M301.133 106.622C301.133 111.22 305.427 114.947 310.724 114.947C316.021 114.947 320.315 111.22 320.315 106.622C320.315 102.024 316.021 98.2966 310.724 98.2966C305.427 98.2966 301.133 102.024 301.133 106.622Z" fill="white"/>
<path fill-rule="evenodd" clip-rule="evenodd" d="M311.101 114.296C307.797 114.296 305.12 111.61 305.12 108.296C305.12 104.983 307.797 102.297 311.101 102.297C314.403 102.297 317.082 104.983 317.082 108.296C317.082 111.61 314.403 114.296 311.101 114.296ZM311.101 118.297C305.595 118.297 301.133 113.819 301.133 108.296C301.133 102.774 305.595 98.2966 311.101 98.2966C316.606 98.2966 321.069 102.774 321.069 108.296C321.069 113.819 316.606 118.297 311.101 118.297Z" fill="#01BB84"/>
<path d="M55.6033 215.38C55.6033 219.978 59.8974 223.705 65.1944 223.705C70.4915 223.705 74.7855 219.978 74.7855 215.38C74.7855 210.782 70.4915 207.054 65.1944 207.054C59.8974 207.054 55.6033 210.782 55.6033 215.38Z" fill="white"/>
<path fill-rule="evenodd" clip-rule="evenodd" d="M65.5716 223.054C62.2684 223.054 59.5906 220.368 59.5906 217.054C59.5906 213.741 62.2684 211.054 65.5716 211.054C68.8748 211.054 71.5525 213.741 71.5525 217.054C71.5525 220.368 68.8748 223.054 65.5716 223.054ZM65.5716 227.054C60.0663 227.054 55.6033 222.577 55.6033 217.054C55.6033 211.531 60.0663 207.054 65.5716 207.054C71.0769 207.054 75.5398 211.531 75.5398 217.054C75.5398 222.577 71.0769 227.054 65.5716 227.054Z" fill="#FF5858"/>
</g>
</g>
<defs>
<filter id="filter0_d_3_8168" x="-11.7192" y="0.614014" width="413.429" height="303" filterUnits="userSpaceOnUse" color-interpolation-filters="sRGB">
<feFlood flood-opacity="0" result="BackgroundImageFix"/>
<feColorMatrix in="SourceAlpha" type="matrix" values="0 0 0 0 0 0 0 0 0 0 0 0 0 0 0 0 0 0 127 0" result="hardAlpha"/>
<feOffset dy="2"/>
<feGaussianBlur stdDeviation="13.5"/>
<feComposite in2="hardAlpha" operator="out"/>
<feColorMatrix type="matrix" values="0 0 0 0 0.188235 0 0 0 0 0.443137 0 0 0 0 1 0 0 0 0.1 0"/>
<feBlend mode="normal" in2="BackgroundImageFix" result="effect1_dropShadow_3_8168"/>
<feBlend mode="normal" in="SourceGraphic" in2="effect1_dropShadow_3_8168" result="shape"/>
</filter>
<filter id="filter1_dd_3_8168" x="34.7012" y="146.447" width="63" height="62.3638" filterUnits="userSpaceOnUse" color-interpolation-filters="sRGB">
<feFlood flood-opacity="0" result="BackgroundImageFix"/>
<feColorMatrix in="SourceAlpha" type="matrix" values="0 0 0 0 0 0 0 0 0 0 0 0 0 0 0 0 0 0 127 0" result="hardAlpha"/>
<feOffset dy="1"/>
<feGaussianBlur stdDeviation="2"/>
<feComposite in2="hardAlpha" operator="out"/>
<feColorMatrix type="matrix" values="0 0 0 0 0.0470588 0 0 0 0 0.0470588 0 0 0 0 0.0509804 0 0 0 0.05 0"/>
<feBlend mode="normal" in2="BackgroundImageFix" result="effect1_dropShadow_3_8168"/>
<feColorMatrix in="SourceAlpha" type="matrix" values="0 0 0 0 0 0 0 0 0 0 0 0 0 0 0 0 0 0 127 0" result="hardAlpha"/>
<feOffset dy="1"/>
<feGaussianBlur stdDeviation="2"/>
<feComposite in2="hardAlpha" operator="out"/>
<feColorMatrix type="matrix" values="0 0 0 0 0.0470588 0 0 0 0 0.0470588 0 0 0 0 0.0509804 0 0 0 0.1 0"/>
<feBlend mode="normal" in2="effect1_dropShadow_3_8168" result="effect2_dropShadow_3_8168"/>
<feBlend mode="normal" in="SourceGraphic" in2="effect2_dropShadow_3_8168" result="shape"/>
</filter>
<filter id="filter2_dd_3_8168" x="275.542" y="38.2832" width="71" height="62.3638" filterUnits="userSpaceOnUse" color-interpolation-filters="sRGB">
<feFlood flood-opacity="0" result="BackgroundImageFix"/>
<feColorMatrix in="SourceAlpha" type="matrix" values="0 0 0 0 0 0 0 0 0 0 0 0 0 0 0 0 0 0 127 0" result="hardAlpha"/>
<feOffset dy="1"/>
<feGaussianBlur stdDeviation="2"/>
<feComposite in2="hardAlpha" operator="out"/>
<feColorMatrix type="matrix" values="0 0 0 0 0.0470588 0 0 0 0 0.0470588 0 0 0 0 0.0509804 0 0 0 0.05 0"/>
<feBlend mode="normal" in2="BackgroundImageFix" result="effect1_dropShadow_3_8168"/>
<feColorMatrix in="SourceAlpha" type="matrix" values="0 0 0 0 0 0 0 0 0 0 0 0 0 0 0 0 0 0 127 0" result="hardAlpha"/>
<feOffset dy="1"/>
<feGaussianBlur stdDeviation="2"/>
<feComposite in2="hardAlpha" operator="out"/>
<feColorMatrix type="matrix" values="0 0 0 0 0.0470588 0 0 0 0 0.0470588 0 0 0 0 0.0509804 0 0 0 0.1 0"/>
<feBlend mode="normal" in2="effect1_dropShadow_3_8168" result="effect2_dropShadow_3_8168"/>
<feBlend mode="normal" in="SourceGraphic" in2="effect2_dropShadow_3_8168" result="shape"/>
</filter>
<linearGradient id="paint0_linear_3_8168" x1="413.437" y1="320.821" x2="7.02026" y2="169.462" gradientUnits="userSpaceOnUse">
<stop offset="0.092378" stop-color="#0040FF"/>
<stop offset="1" stop-color="#E3ECFF"/>
</linearGradient>
<linearGradient id="paint1_linear_3_8168" x1="5.91815" y1="5.67142" x2="329.911" y2="289.309" gradientUnits="userSpaceOnUse">
<stop stop-color="#E3ECFF"/>
<stop offset="1" stop-color="white"/>
</linearGradient>
<linearGradient id="paint2_linear_3_8168" x1="15.6628" y1="220.595" x2="377.195" y2="102.474" gradientUnits="userSpaceOnUse">
<stop stop-color="#FD1F1F"/>
<stop offset="0.408654" stop-color="#FFC056"/>
<stop offset="0.668269" stop-color="#C5F13F"/>
<stop offset="1" stop-color="#01BB84"/>
</linearGradient>
<clipPath id="clip0_3_8168">
<rect x="15.2808" y="25.614" width="359.429" height="249" rx="12" fill="white"/>
</clipPath>
</defs>
</svg>
