<svg width="390" height="303" viewBox="0 0 390 303" fill="none" xmlns="http://www.w3.org/2000/svg">
<g filter="url(#filter0_d_3_8461)">
<g clip-path="url(#clip0_3_8461)">
<path d="M15.8605 37.5318C15.8605 30.779 22.09 25.3047 29.7746 25.3047H360.235C367.92 25.3047 374.149 30.779 374.149 37.5318V261.442C374.149 268.195 367.92 273.669 360.235 273.669H29.7746C22.09 273.669 15.8605 268.195 15.8605 261.442V37.5318Z" fill="white"/>
<path opacity="0.12" d="M374.149 101.702C374.149 101.702 297.778 104 256.472 121.463C215.166 138.925 173.076 167.005 130.473 192.833C65.764 221.636 15.8605 219.943 15.8605 219.943V261.383C15.8605 268.169 22.09 273.669 29.7746 273.669H360.235C367.92 273.669 374.149 268.169 374.149 261.383V101.702Z" fill="url(#paint0_linear_3_8461)"/>
<path d="M65.3496 230.543L65.3496 244.628" stroke="#81848F" stroke-dasharray="4 4"/>
<path fill-rule="evenodd" clip-rule="evenodd" d="M360.235 26.0689H29.7746C22.5703 26.0689 16.7301 31.201 16.7301 37.5318V261.442C16.7301 267.772 22.5703 272.905 29.7746 272.905H360.235C367.439 272.905 373.28 267.772 373.28 261.442V37.5318C373.28 31.201 367.439 26.0689 360.235 26.0689ZM29.7746 25.3047C22.09 25.3047 15.8605 30.779 15.8605 37.5318V261.442C15.8605 268.195 22.09 273.669 29.7746 273.669H360.235C367.92 273.669 374.149 268.195 374.149 261.442V37.5318C374.149 30.779 367.92 25.3047 360.235 25.3047H29.7746Z" fill="url(#paint1_linear_3_8461)"/>
<path fill-rule="evenodd" clip-rule="evenodd" d="M392.006 228.46H-3.14844L-3.14844 227.628H392.006V228.46Z" fill="#CEDDFF"/>
<path fill-rule="evenodd" clip-rule="evenodd" d="M392.006 180.582H-3.14844L-3.14844 179.749H392.006V180.582Z" fill="#CEDDFF"/>
<path fill-rule="evenodd" clip-rule="evenodd" d="M392.006 132.699H-3.14844L-3.14844 131.866H392.006V132.699Z" fill="#CEDDFF"/>
<path d="M28.2948 59V48.8182H34.9169V50.3643H30.1392V53.1286H34.5739V54.6747H30.1392V57.4538H34.9567V59H28.2948ZM38.5189 54.5256V59H36.7191V51.3636H38.4393V52.6612H38.5288C38.7045 52.2337 38.9845 51.8939 39.369 51.642C39.7568 51.3902 40.2357 51.2642 40.8058 51.2642C41.3328 51.2642 41.7918 51.3769 42.1829 51.6023C42.5773 51.8277 42.8823 52.1541 43.0977 52.5817C43.3165 53.0092 43.4242 53.5279 43.4209 54.1378V59H41.6211V54.4162C41.6211 53.9058 41.4886 53.5064 41.2234 53.218C40.9616 52.9297 40.5986 52.7855 40.1346 52.7855C39.8198 52.7855 39.5397 52.8551 39.2944 52.9943C39.0525 53.1302 38.8619 53.3274 38.7227 53.5859C38.5868 53.8445 38.5189 54.1577 38.5189 54.5256ZM48.5714 62.0227C47.9251 62.0227 47.37 61.9349 46.9059 61.7592C46.4419 61.5869 46.0691 61.3549 45.7873 61.0632C45.5056 60.7715 45.3101 60.4484 45.2007 60.0938L46.8214 59.701C46.8943 59.8501 47.0004 59.9976 47.1396 60.1435C47.2788 60.2926 47.4661 60.4152 47.7014 60.5114C47.94 60.6108 48.24 60.6605 48.6013 60.6605C49.1117 60.6605 49.5343 60.5362 49.869 60.2876C50.2038 60.0424 50.3711 59.638 50.3711 59.0746V57.6278H50.2816C50.1888 57.8134 50.053 58.004 49.874 58.1996C49.6983 58.3951 49.4647 58.5592 49.173 58.6918C48.8846 58.8243 48.5217 58.8906 48.0842 58.8906C47.4976 58.8906 46.9656 58.7531 46.4883 58.478C46.0144 58.1996 45.6365 57.7853 45.3548 57.2351C45.0764 56.6816 44.9372 55.9889 44.9372 55.157C44.9372 54.3184 45.0764 53.6108 45.3548 53.0341C45.6365 52.4541 46.016 52.0149 46.4933 51.7166C46.9706 51.415 47.5025 51.2642 48.0892 51.2642C48.5366 51.2642 48.9045 51.3404 49.1929 51.4929C49.4845 51.642 49.7165 51.8227 49.8889 52.0348C50.0612 52.2436 50.1922 52.4408 50.2816 52.6264H50.3811V51.3636H52.1559V59.1243C52.1559 59.7772 52.0002 60.3175 51.6886 60.745C51.3771 61.1726 50.9512 61.4924 50.4109 61.7045C49.8707 61.9167 49.2575 62.0227 48.5714 62.0227ZM48.5863 57.4787C48.9675 57.4787 49.2923 57.3859 49.5608 57.2003C49.8292 57.0147 50.0331 56.7479 50.1723 56.3999C50.3115 56.0518 50.3811 55.6342 50.3811 55.147C50.3811 54.6664 50.3115 54.2455 50.1723 53.8842C50.0364 53.523 49.8342 53.2429 49.5657 53.044C49.3006 52.8419 48.9741 52.7408 48.5863 52.7408C48.1853 52.7408 47.8505 52.8452 47.5821 53.054C47.3136 53.2628 47.1114 53.5495 46.9755 53.9141C46.8397 54.2753 46.7717 54.6863 46.7717 55.147C46.7717 55.6143 46.8397 56.0237 46.9755 56.375C47.1147 56.723 47.3186 56.9948 47.587 57.1903C47.8588 57.3826 48.1919 57.4787 48.5863 57.4787ZM55.8001 48.8182V59H54.0004V48.8182H55.8001ZM57.6508 59V51.3636H59.4505V59H57.6508ZM58.5556 50.2798C58.2706 50.2798 58.0253 50.1854 57.8198 49.9964C57.6143 49.8042 57.5116 49.5739 57.5116 49.3054C57.5116 49.0336 57.6143 48.8033 57.8198 48.6143C58.0253 48.4221 58.2706 48.326 58.5556 48.326C58.844 48.326 59.0892 48.4221 59.2914 48.6143C59.4969 48.8033 59.5997 49.0336 59.5997 49.3054C59.5997 49.5739 59.4969 49.8042 59.2914 49.9964C59.0892 50.1854 58.844 50.2798 58.5556 50.2798ZM67.3367 53.3821L65.6961 53.5611C65.6497 53.3954 65.5685 53.2396 65.4525 53.0938C65.3398 52.9479 65.1873 52.8303 64.9951 52.7408C64.8028 52.6513 64.5675 52.6065 64.2891 52.6065C63.9146 52.6065 63.5997 52.6877 63.3445 52.8501C63.0926 53.0125 62.9683 53.223 62.9716 53.4815C62.9683 53.7036 63.0495 53.8842 63.2152 54.0234C63.3843 54.1626 63.6627 54.277 64.0505 54.3665L65.353 54.6449C66.0756 54.8007 66.6125 55.0476 66.9638 55.3857C67.3185 55.7237 67.4974 56.1662 67.5008 56.7131C67.4974 57.1937 67.3566 57.6179 67.0782 57.9858C66.8031 58.3504 66.4203 58.6354 65.9297 58.8409C65.4392 59.0464 64.8758 59.1491 64.2394 59.1491C63.3047 59.1491 62.5524 58.9536 61.9823 58.5625C61.4122 58.1681 61.0725 57.6196 60.9631 56.9169L62.7181 56.7479C62.7976 57.0926 62.9667 57.3527 63.2252 57.5284C63.4837 57.7041 63.8201 57.7919 64.2344 57.7919C64.662 57.7919 65.005 57.7041 65.2635 57.5284C65.5254 57.3527 65.6563 57.1357 65.6563 56.8771C65.6563 56.6584 65.5718 56.4777 65.4027 56.3352C65.237 56.1927 64.9785 56.0833 64.6272 56.0071L63.3246 55.7337C62.5921 55.5812 62.0502 55.3243 61.6989 54.9631C61.3476 54.5985 61.1736 54.1378 61.1769 53.581C61.1736 53.1103 61.3012 52.7027 61.5597 52.358C61.8215 52.0099 62.1845 51.7415 62.6485 51.5526C63.1158 51.3603 63.6544 51.2642 64.2642 51.2642C65.1591 51.2642 65.8634 51.4548 66.3772 51.8359C66.8942 52.2171 67.2141 52.7325 67.3367 53.3821ZM70.7845 54.5256V59H68.9848V48.8182H70.7447V52.6612H70.8342C71.0132 52.2304 71.2899 51.8906 71.6645 51.642C72.0423 51.3902 72.5229 51.2642 73.1062 51.2642C73.6365 51.2642 74.0989 51.3752 74.4933 51.5973C74.8877 51.8194 75.1926 52.1442 75.4081 52.5717C75.6268 52.9993 75.7362 53.5213 75.7362 54.1378V59H73.9365V54.4162C73.9365 53.9025 73.8039 53.5031 73.5388 53.218C73.2769 52.9297 72.909 52.7855 72.4351 52.7855C72.1169 52.7855 71.8318 52.8551 71.5799 52.9943C71.3314 53.1302 71.1358 53.3274 70.9933 53.5859C70.8541 53.8445 70.7845 54.1577 70.7845 54.5256ZM82.8431 48.8182V59H81.0434V48.8182H82.8431ZM88.0744 59.1491C87.3088 59.1491 86.6476 58.9901 86.0908 58.6719C85.5373 58.3504 85.1114 57.8963 84.8131 57.3097C84.5148 56.7197 84.3656 56.0253 84.3656 55.2266C84.3656 54.4411 84.5148 53.7517 84.8131 53.1584C85.1147 52.5618 85.5356 52.0978 86.0759 51.7663C86.6161 51.4316 87.2508 51.2642 87.98 51.2642C88.4506 51.2642 88.8948 51.3404 89.3124 51.4929C89.7333 51.642 90.1045 51.8741 90.426 52.1889C90.7508 52.5038 91.006 52.9048 91.1916 53.392C91.3772 53.8759 91.47 54.4527 91.47 55.1222V55.674H85.2108V54.4609H89.7449C89.7416 54.1162 89.667 53.8097 89.5212 53.5412C89.3753 53.2694 89.1715 53.0556 88.9097 52.8999C88.6511 52.7441 88.3495 52.6662 88.0048 52.6662C87.6369 52.6662 87.3138 52.7557 87.0354 52.9347C86.757 53.1103 86.5399 53.3423 86.3841 53.6307C86.2316 53.9157 86.1537 54.2289 86.1504 54.5703V55.6293C86.1504 56.0734 86.2316 56.4545 86.394 56.7727C86.5564 57.0876 86.7835 57.3295 87.0752 57.4986C87.3668 57.6643 87.7082 57.7472 88.0993 57.7472C88.3611 57.7472 88.5981 57.7107 88.8102 57.6378C89.0224 57.5616 89.2063 57.4505 89.3621 57.3047C89.5179 57.1589 89.6355 56.9782 89.7151 56.7628L91.3955 56.9517C91.2894 57.3958 91.0872 57.7836 90.7889 58.1151C90.4939 58.4432 90.1161 58.6984 89.6554 58.8807C89.1947 59.0597 88.6677 59.1491 88.0744 59.1491ZM99.5949 51.3636L96.8754 59H94.8868L92.1673 51.3636H94.0863L95.8413 57.0362H95.9209L97.6808 51.3636H99.5949ZM103.961 59.1491C103.196 59.1491 102.534 58.9901 101.977 58.6719C101.424 58.3504 100.998 57.8963 100.7 57.3097C100.402 56.7197 100.252 56.0253 100.252 55.2266C100.252 54.4411 100.402 53.7517 100.7 53.1584C101.001 52.5618 101.422 52.0978 101.963 51.7663C102.503 51.4316 103.138 51.2642 103.867 51.2642C104.337 51.2642 104.781 51.3404 105.199 51.4929C105.62 51.642 105.991 51.8741 106.313 52.1889C106.638 52.5038 106.893 52.9048 107.078 53.392C107.264 53.8759 107.357 54.4527 107.357 55.1222V55.674H101.098V54.4609H105.632C105.628 54.1162 105.554 53.8097 105.408 53.5412C105.262 53.2694 105.058 53.0556 104.796 52.8999C104.538 52.7441 104.236 52.6662 103.892 52.6662C103.524 52.6662 103.201 52.7557 102.922 52.9347C102.644 53.1103 102.427 53.3423 102.271 53.6307C102.118 53.9157 102.04 54.2289 102.037 54.5703V55.6293C102.037 56.0734 102.118 56.4545 102.281 56.7727C102.443 57.0876 102.67 57.3295 102.962 57.4986C103.254 57.6643 103.595 57.7472 103.986 57.7472C104.248 57.7472 104.485 57.7107 104.697 57.6378C104.909 57.5616 105.093 57.4505 105.249 57.3047C105.405 57.1589 105.522 56.9782 105.602 56.7628L107.282 56.9517C107.176 57.3958 106.974 57.7836 106.676 58.1151C106.381 58.4432 106.003 58.6984 105.542 58.8807C105.081 59.0597 104.554 59.1491 103.961 59.1491ZM110.679 48.8182V59H108.879V48.8182H110.679Z" fill="black"/>
<path d="M291.69 253.029H293.302L295.461 258.299H295.547L297.706 253.029H299.318V260.302H298.054V255.305H297.986L295.976 260.28H295.032L293.022 255.295H292.954V260.302H291.69V253.029ZM303.075 260.408C302.542 260.408 302.081 260.291 301.69 260.057C301.299 259.822 300.996 259.494 300.781 259.073C300.568 258.652 300.461 258.159 300.461 257.596C300.461 257.032 300.568 256.539 300.781 256.115C300.996 255.691 301.299 255.362 301.69 255.128C302.081 254.893 302.542 254.776 303.075 254.776C303.608 254.776 304.069 254.893 304.46 255.128C304.85 255.362 305.152 255.691 305.365 256.115C305.581 256.539 305.689 257.032 305.689 257.596C305.689 258.159 305.581 258.652 305.365 259.073C305.152 259.494 304.85 259.822 304.46 260.057C304.069 260.291 303.608 260.408 303.075 260.408ZM303.082 259.378C303.371 259.378 303.612 259.299 303.806 259.141C304.001 258.98 304.145 258.764 304.24 258.494C304.337 258.224 304.385 257.924 304.385 257.592C304.385 257.258 304.337 256.957 304.24 256.687C304.145 256.414 304.001 256.198 303.806 256.037C303.612 255.876 303.371 255.795 303.082 255.795C302.786 255.795 302.54 255.876 302.343 256.037C302.149 256.198 302.004 256.414 301.907 256.687C301.812 256.957 301.765 257.258 301.765 257.592C301.765 257.924 301.812 258.224 301.907 258.494C302.004 258.764 302.149 258.98 302.343 259.141C302.54 259.299 302.786 259.378 303.082 259.378ZM308.065 257.106V260.302H306.78V254.847H308.008V255.774H308.072C308.198 255.469 308.398 255.226 308.672 255.046C308.949 254.866 309.291 254.776 309.699 254.776C310.075 254.776 310.403 254.857 310.682 255.018C310.964 255.179 311.182 255.412 311.336 255.717C311.492 256.023 311.569 256.393 311.567 256.829V260.302H310.281V257.028C310.281 256.663 310.186 256.378 309.997 256.172C309.81 255.966 309.551 255.863 309.219 255.863C308.994 255.863 308.794 255.913 308.619 256.012C308.446 256.109 308.31 256.25 308.211 256.435C308.114 256.619 308.065 256.843 308.065 257.106ZM315.597 254.847V255.842H312.461V254.847H315.597ZM313.236 253.54H314.521V258.661C314.521 258.834 314.547 258.967 314.599 259.059C314.654 259.149 314.725 259.21 314.812 259.244C314.9 259.277 314.997 259.293 315.104 259.293C315.184 259.293 315.257 259.287 315.324 259.275C315.392 259.264 315.444 259.253 315.48 259.244L315.697 260.248C315.628 260.272 315.53 260.298 315.402 260.327C315.276 260.355 315.122 260.372 314.94 260.376C314.618 260.386 314.328 260.337 314.07 260.231C313.812 260.122 313.607 259.954 313.456 259.726C313.307 259.499 313.233 259.215 313.236 258.874V253.54ZM318.075 257.106V260.302H316.789V253.029H318.047V255.774H318.11C318.238 255.466 318.436 255.224 318.703 255.046C318.973 254.866 319.317 254.776 319.733 254.776C320.112 254.776 320.442 254.855 320.724 255.014C321.006 255.173 321.224 255.405 321.377 255.71C321.534 256.016 321.612 256.388 321.612 256.829V260.302H320.326V257.028C320.326 256.661 320.232 256.375 320.042 256.172C319.855 255.966 319.592 255.863 319.254 255.863C319.027 255.863 318.823 255.913 318.643 256.012C318.466 256.109 318.326 256.25 318.224 256.435C318.125 256.619 318.075 256.843 318.075 257.106ZM325.257 258.952V257.905L328.343 253.029H329.217V254.521H328.684L326.607 257.812V257.869H330.914V258.952H325.257ZM328.727 260.302V258.633L328.741 258.164V253.029H329.984V260.302H328.727Z" fill="#5C5F6C"/>
<path d="M50.7473 254.133V253.029H56.5499V254.133H54.302V260.302H52.9952V254.133H50.7473ZM59.1999 260.408C58.6673 260.408 58.2056 260.291 57.815 260.057C57.4244 259.822 57.1213 259.494 56.9059 259.073C56.6928 258.652 56.5863 258.159 56.5863 257.596C56.5863 257.032 56.6928 256.539 56.9059 256.115C57.1213 255.691 57.4244 255.362 57.815 255.128C58.2056 254.893 58.6673 254.776 59.1999 254.776C59.7326 254.776 60.1942 254.893 60.5849 255.128C60.9755 255.362 61.2773 255.691 61.4904 256.115C61.7058 256.539 61.8136 257.032 61.8136 257.596C61.8136 258.159 61.7058 258.652 61.4904 259.073C61.2773 259.494 60.9755 259.822 60.5849 260.057C60.1942 260.291 59.7326 260.408 59.1999 260.408ZM59.207 259.378C59.4959 259.378 59.7373 259.299 59.9315 259.141C60.1256 258.98 60.27 258.764 60.3647 258.494C60.4618 258.224 60.5103 257.924 60.5103 257.592C60.5103 257.258 60.4618 256.957 60.3647 256.687C60.27 256.414 60.1256 256.198 59.9315 256.037C59.7373 255.876 59.4959 255.795 59.207 255.795C58.9111 255.795 58.6649 255.876 58.4684 256.037C58.2743 256.198 58.1287 256.414 58.0316 256.687C57.9369 256.957 57.8896 257.258 57.8896 257.592C57.8896 257.924 57.9369 258.224 58.0316 258.494C58.1287 258.764 58.2743 258.98 58.4684 259.141C58.6649 259.299 58.9111 259.378 59.207 259.378ZM64.9288 260.398C64.5003 260.398 64.1168 260.288 63.7782 260.067C63.4397 259.847 63.1722 259.528 62.9757 259.109C62.7792 258.69 62.6809 258.181 62.6809 257.582C62.6809 256.976 62.7804 256.464 62.9792 256.047C63.1805 255.628 63.4515 255.312 63.7924 255.099C64.1333 254.884 64.5133 254.776 64.9324 254.776C65.252 254.776 65.5147 254.831 65.7207 254.94C65.9267 255.046 66.09 255.175 66.2108 255.327C66.3315 255.476 66.425 255.617 66.4913 255.749H66.5446V253.029H67.8336V260.302H66.5694V259.442H66.4913C66.425 259.575 66.3291 259.716 66.2037 259.865C66.0782 260.012 65.9125 260.137 65.7065 260.241C65.5005 260.346 65.2413 260.398 64.9288 260.398ZM65.2875 259.343C65.5597 259.343 65.7917 259.27 65.9835 259.123C66.1752 258.974 66.3208 258.766 66.4203 258.501C66.5197 258.236 66.5694 257.927 66.5694 257.574C66.5694 257.222 66.5197 256.915 66.4203 256.655C66.3232 256.394 66.1788 256.192 65.987 256.047C65.7976 255.903 65.5645 255.831 65.2875 255.831C65.001 255.831 64.7619 255.905 64.5701 256.055C64.3784 256.204 64.234 256.41 64.1369 256.672C64.0398 256.935 63.9913 257.236 63.9913 257.574C63.9913 257.915 64.0398 258.22 64.1369 258.487C64.2363 258.752 64.3819 258.962 64.5737 259.116C64.7678 259.267 65.0057 259.343 65.2875 259.343ZM70.7731 260.412C70.4274 260.412 70.1161 260.35 69.8391 260.227C69.5645 260.102 69.3467 259.917 69.1857 259.673C69.0271 259.429 68.9478 259.129 68.9478 258.771C68.9478 258.463 69.0046 258.209 69.1183 258.008C69.2319 257.806 69.387 257.646 69.5835 257.525C69.7799 257.404 70.0013 257.313 70.2475 257.251C70.4961 257.187 70.753 257.141 71.0181 257.113C71.3377 257.08 71.5969 257.05 71.7958 257.024C71.9947 256.996 72.1391 256.953 72.229 256.896C72.3214 256.837 72.3675 256.746 72.3675 256.623V256.601C72.3675 256.334 72.2882 256.127 72.1296 255.98C71.971 255.833 71.7425 255.76 71.4442 255.76C71.1294 255.76 70.8796 255.829 70.695 255.966C70.5127 256.103 70.3896 256.265 70.3256 256.452L69.1254 256.282C69.2201 255.95 69.3763 255.673 69.5941 255.451C69.8119 255.226 70.0782 255.058 70.3931 254.947C70.708 254.833 71.056 254.776 71.4371 254.776C71.6999 254.776 71.9615 254.807 72.2219 254.869C72.4824 254.93 72.7203 255.032 72.9357 255.174C73.1512 255.314 73.324 255.504 73.4542 255.746C73.5868 255.987 73.6531 256.289 73.6531 256.651V260.302H72.4173V259.552H72.3746C72.2965 259.704 72.1864 259.846 72.0444 259.979C71.9047 260.109 71.7283 260.214 71.5153 260.295C71.3046 260.373 71.0572 260.412 70.7731 260.412ZM71.1069 259.467C71.3649 259.467 71.5887 259.416 71.7781 259.315C71.9674 259.21 72.113 259.073 72.2148 258.903C72.319 258.732 72.3711 258.546 72.3711 258.345V257.702C72.3308 257.735 72.2622 257.766 72.1651 257.795C72.0704 257.823 71.9639 257.848 71.8455 257.869C71.7272 257.891 71.61 257.909 71.494 257.926C71.378 257.943 71.2773 257.957 71.1921 257.969C71.0004 257.995 70.8287 258.037 70.6772 258.097C70.5257 258.156 70.4061 258.239 70.3185 258.345C70.2309 258.449 70.1871 258.584 70.1871 258.75C70.1871 258.987 70.2736 259.165 70.4464 259.286C70.6192 259.407 70.8394 259.467 71.1069 259.467ZM75.5494 262.347C75.3742 262.347 75.212 262.333 75.0629 262.305C74.9161 262.279 74.7989 262.248 74.7113 262.212L75.0096 261.211C75.1966 261.265 75.3635 261.291 75.5103 261.289C75.6571 261.287 75.7861 261.24 75.8974 261.15C76.011 261.063 76.1069 260.916 76.185 260.71L76.2951 260.415L74.3171 254.847H75.6808L76.9379 258.967H76.9947L78.2553 254.847H79.6225L77.4386 260.962C77.3368 261.251 77.2018 261.498 77.0337 261.704C76.8656 261.913 76.6597 262.071 76.4158 262.18C76.1744 262.292 75.8855 262.347 75.5494 262.347Z" fill="#5C5F6C"/>
<g filter="url(#filter1_dd_3_8461)">
<mask id="path-12-inside-1_3_8461" fill="white">
<path d="M40.7109 165.833C40.7109 161.415 44.2927 157.833 48.7109 157.833H83.7109C88.1292 157.833 91.7109 161.415 91.7109 165.833V180.833C91.7109 185.252 88.1292 188.833 83.7109 188.833H48.7109C44.2927 188.833 40.7109 185.252 40.7109 180.833V165.833Z"/>
</mask>
<path d="M40.7109 165.833C40.7109 161.415 44.2927 157.833 48.7109 157.833H83.7109C88.1292 157.833 91.7109 161.415 91.7109 165.833V180.833C91.7109 185.252 88.1292 188.833 83.7109 188.833H48.7109C44.2927 188.833 40.7109 185.252 40.7109 180.833V165.833Z" fill="white" shape-rendering="crispEdges"/>
<path d="M48.7109 157.833V158.833H83.7109V157.833V156.833H48.7109V157.833ZM91.7109 165.833H90.7109V180.833H91.7109H92.7109V165.833H91.7109ZM83.7109 188.833V187.833H48.7109V188.833V189.833H83.7109V188.833ZM40.7109 180.833H41.7109V165.833H40.7109H39.7109V180.833H40.7109ZM48.7109 188.833V187.833C44.8449 187.833 41.7109 184.699 41.7109 180.833H40.7109H39.7109C39.7109 185.804 43.7404 189.833 48.7109 189.833V188.833ZM91.7109 180.833H90.7109C90.7109 184.699 87.5769 187.833 83.7109 187.833V188.833V189.833C88.6815 189.833 92.7109 185.804 92.7109 180.833H91.7109ZM83.7109 157.833V158.833C87.5769 158.833 90.7109 161.967 90.7109 165.833H91.7109H92.7109C92.7109 160.863 88.6815 156.833 83.7109 156.833V157.833ZM48.7109 157.833V156.833C43.7404 156.833 39.7109 160.863 39.7109 165.833H40.7109H41.7109C41.7109 161.967 44.8449 158.833 48.7109 158.833V157.833Z" fill="#CEDDFF" mask="url(#path-12-inside-1_3_8461)"/>
<path d="M65.7109 182.883L71.3678 188.54L65.7109 194.197L60.0541 188.54L65.7109 182.883Z" fill="white"/>
<path fill-rule="evenodd" clip-rule="evenodd" d="M60.0541 188.54L65.7109 194.197L71.3678 188.54L70.6607 187.833L65.7109 192.783L60.7612 187.833L60.0541 188.54Z" fill="#CEDDFF"/>
<path d="M60.7436 169.106V177.833H59.3374L55.2251 171.889H55.1527V177.833H53.5717V169.106H54.9865L59.0945 175.055H59.1712V169.106H60.7436ZM65.2532 177.961C64.614 177.961 64.06 177.82 63.5913 177.539C63.1225 177.258 62.7589 176.865 62.5004 176.359C62.2447 175.853 62.1168 175.262 62.1168 174.586C62.1168 173.91 62.2447 173.318 62.5004 172.809C62.7589 172.301 63.1225 171.906 63.5913 171.624C64.06 171.343 64.614 171.203 65.2532 171.203C65.8924 171.203 66.4464 171.343 66.9151 171.624C67.3839 171.906 67.7461 172.301 68.0018 172.809C68.2603 173.318 68.3896 173.91 68.3896 174.586C68.3896 175.262 68.2603 175.853 68.0018 176.359C67.7461 176.865 67.3839 177.258 66.9151 177.539C66.4464 177.82 65.8924 177.961 65.2532 177.961ZM65.2617 176.725C65.6083 176.725 65.8981 176.63 66.131 176.44C66.364 176.247 66.5373 175.988 66.6509 175.664C66.7674 175.34 66.8256 174.98 66.8256 174.582C66.8256 174.181 66.7674 173.819 66.6509 173.495C66.5373 173.168 66.364 172.909 66.131 172.715C65.8981 172.522 65.6083 172.426 65.2617 172.426C64.9066 172.426 64.6112 172.522 64.3754 172.715C64.1424 172.909 63.9677 173.168 63.8512 173.495C63.7376 173.819 63.6808 174.181 63.6808 174.582C63.6808 174.98 63.7376 175.34 63.8512 175.664C63.9677 175.988 64.1424 176.247 64.3754 176.44C64.6112 176.63 64.9066 176.725 65.2617 176.725ZM70.8622 177.833L69.0128 171.288H70.5852L71.7358 175.89H71.7955L72.9716 171.288H74.527L75.7031 175.865H75.767L76.9006 171.288H78.4773L76.6236 177.833H75.017L73.7898 173.41H73.7003L72.473 177.833H70.8622Z" fill="black"/>
</g>
<g filter="url(#filter2_dd_3_8461)">
<mask id="path-17-inside-2_3_8461" fill="white">
<path d="M277.051 57.6692C277.051 53.2509 280.633 49.6692 285.051 49.6692H337.051C341.47 49.6692 345.051 53.2509 345.051 57.6692V72.6692C345.051 77.0875 341.47 80.6692 337.051 80.6692H285.051C280.633 80.6692 277.051 77.0875 277.051 72.6692V57.6692Z"/>
</mask>
<path d="M277.051 57.6692C277.051 53.2509 280.633 49.6692 285.051 49.6692H337.051C341.47 49.6692 345.051 53.2509 345.051 57.6692V72.6692C345.051 77.0875 341.47 80.6692 337.051 80.6692H285.051C280.633 80.6692 277.051 77.0875 277.051 72.6692V57.6692Z" fill="#2563EB" shape-rendering="crispEdges"/>
<path d="M285.051 49.6692V50.6692H337.051V49.6692V48.6692H285.051V49.6692ZM345.051 57.6692H344.051V72.6692H345.051H346.051V57.6692H345.051ZM337.051 80.6692V79.6692H285.051V80.6692V81.6692H337.051V80.6692ZM277.051 72.6692H278.051V57.6692H277.051H276.051V72.6692H277.051ZM285.051 80.6692V79.6692C281.185 79.6692 278.051 76.5352 278.051 72.6692H277.051H276.051C276.051 77.6398 280.081 81.6692 285.051 81.6692V80.6692ZM345.051 72.6692H344.051C344.051 76.5352 340.917 79.6692 337.051 79.6692V80.6692V81.6692C342.022 81.6692 346.051 77.6398 346.051 72.6692H345.051ZM337.051 49.6692V50.6692C340.917 50.6692 344.051 53.8032 344.051 57.6692H345.051H346.051C346.051 52.6986 342.022 48.6692 337.051 48.6692V49.6692ZM285.051 49.6692V48.6692C280.081 48.6692 276.051 52.6986 276.051 57.6692H277.051H278.051C278.051 53.8032 281.185 50.6692 285.051 50.6692V49.6692Z" fill="#2563EB" mask="url(#path-17-inside-2_3_8461)"/>
<path d="M311.051 74.7192L316.708 80.3761L311.051 86.0329L305.394 80.3761L311.051 74.7192Z" fill="#2563EB"/>
<path fill-rule="evenodd" clip-rule="evenodd" d="M305.394 80.3761L311.051 86.0329L316.708 80.3761L316.001 79.669L311.051 84.6187L306.102 79.669L305.394 80.3761Z" fill="#2563EB"/>
<path d="M289.912 69.6692V60.9419H295.588V62.2672H291.493V64.6365H295.294V65.9618H291.493V68.3439H295.622V69.6692H289.912ZM298.676 60.9419V69.6692H297.133V60.9419H298.676ZM300.262 69.6692V63.1237H301.804V69.6692H300.262ZM301.037 62.1948C300.793 62.1948 300.583 62.1138 300.407 61.9519C300.231 61.7871 300.143 61.5896 300.143 61.3595C300.143 61.1266 300.231 60.9291 300.407 60.7672C300.583 60.6024 300.793 60.52 301.037 60.52C301.285 60.52 301.495 60.6024 301.668 60.7672C301.844 60.9291 301.932 61.1266 301.932 61.3595C301.932 61.5896 301.844 61.7871 301.668 61.9519C301.495 62.1138 301.285 62.1948 301.037 62.1948ZM311.937 60.9419H313.518V66.6436C313.518 67.2686 313.37 67.8183 313.075 68.2928C312.782 68.7672 312.37 69.1379 311.839 69.405C311.308 69.6692 310.687 69.8013 309.977 69.8013C309.264 69.8013 308.641 69.6692 308.11 69.405C307.579 69.1379 307.167 68.7672 306.874 68.2928C306.582 67.8183 306.436 67.2686 306.436 66.6436V60.9419H308.016V66.5115C308.016 66.8752 308.096 67.199 308.255 67.4831C308.417 67.7672 308.644 67.9902 308.937 68.1521C309.23 68.3112 309.576 68.3908 309.977 68.3908C310.377 68.3908 310.724 68.3112 311.016 68.1521C311.312 67.9902 311.539 67.7672 311.698 67.4831C311.857 67.199 311.937 66.8752 311.937 66.5115V60.9419ZM320.341 64.8538L318.935 65.0073C318.895 64.8652 318.826 64.7317 318.726 64.6067C318.63 64.4817 318.499 64.3808 318.334 64.3041C318.17 64.2274 317.968 64.1891 317.729 64.1891C317.408 64.1891 317.138 64.2587 316.92 64.3979C316.704 64.5371 316.597 64.7175 316.6 64.9391C316.597 65.1294 316.667 65.2842 316.809 65.4036C316.954 65.5229 317.192 65.6209 317.525 65.6976L318.641 65.9362C319.26 66.0698 319.721 66.2814 320.022 66.5712C320.326 66.861 320.479 67.2402 320.482 67.709C320.479 68.1209 320.358 68.4845 320.12 68.7999C319.884 69.1124 319.556 69.3567 319.135 69.5328C318.715 69.709 318.232 69.797 317.687 69.797C316.885 69.797 316.241 69.6294 315.752 69.2942C315.263 68.9561 314.972 68.486 314.878 67.8837L316.383 67.7388C316.451 68.0342 316.596 68.2573 316.817 68.4078C317.039 68.5584 317.327 68.6337 317.682 68.6337C318.049 68.6337 318.343 68.5584 318.564 68.4078C318.789 68.2573 318.901 68.0712 318.901 67.8496C318.901 67.6621 318.829 67.5073 318.684 67.3851C318.542 67.2629 318.32 67.1692 318.019 67.1038L316.902 66.8695C316.275 66.7388 315.81 66.5186 315.509 66.209C315.208 65.8965 315.059 65.5016 315.062 65.0243C315.059 64.6209 315.168 64.2715 315.39 63.976C315.614 63.6777 315.925 63.4476 316.323 63.2857C316.723 63.1209 317.185 63.0385 317.708 63.0385C318.475 63.0385 319.079 63.2019 319.519 63.5286C319.962 63.8553 320.236 64.297 320.341 64.8538ZM324.652 69.797C323.996 69.797 323.429 69.6607 322.951 69.3879C322.477 69.1124 322.112 68.7232 321.856 68.2203C321.601 67.7146 321.473 67.1195 321.473 66.4348C321.473 65.7615 321.601 65.1706 321.856 64.6621C322.115 64.1507 322.476 63.753 322.939 63.4689C323.402 63.182 323.946 63.0385 324.571 63.0385C324.974 63.0385 325.355 63.1038 325.713 63.2345C326.074 63.3624 326.392 63.5612 326.667 63.8311C326.946 64.101 327.165 64.4448 327.324 64.8624C327.483 65.2771 327.562 65.7715 327.562 66.3453V66.8183H322.197V65.7786H326.084C326.081 65.4831 326.017 65.2203 325.892 64.9902C325.767 64.7573 325.592 64.574 325.368 64.4405C325.146 64.307 324.888 64.2402 324.592 64.2402C324.277 64.2402 324 64.3169 323.761 64.4703C323.523 64.6209 323.336 64.8198 323.203 65.0669C323.072 65.3112 323.005 65.5797 323.003 65.8723V66.78C323.003 67.1607 323.072 67.4874 323.211 67.7601C323.351 68.03 323.545 68.2374 323.795 68.3823C324.045 68.5243 324.338 68.5953 324.673 68.5953C324.898 68.5953 325.101 68.5641 325.282 68.5016C325.464 68.4362 325.622 68.3411 325.755 68.2161C325.889 68.0911 325.99 67.9362 326.058 67.7516L327.498 67.9135C327.407 68.2942 327.234 68.6266 326.978 68.9107C326.726 69.1919 326.402 69.4107 326.007 69.5669C325.612 69.7203 325.16 69.797 324.652 69.797ZM328.867 69.6692V63.1237H330.363V64.2146H330.431C330.551 63.8368 330.755 63.5456 331.045 63.3411C331.337 63.1337 331.671 63.03 332.046 63.03C332.132 63.03 332.227 63.0342 332.332 63.0428C332.44 63.0485 332.529 63.0584 332.6 63.0726V64.4916C332.535 64.4689 332.431 64.449 332.289 64.432C332.15 64.4121 332.015 64.4021 331.884 64.4021C331.603 64.4021 331.35 64.4632 331.126 64.5854C330.904 64.7047 330.73 64.8709 330.602 65.084C330.474 65.297 330.41 65.5428 330.41 65.8212V69.6692H328.867Z" fill="white"/>
</g>
<path d="M311.473 123.333L311.473 245.461" stroke="#81848F" stroke-dasharray="4 4"/>
<path d="M15.5024 219.805C158.753 220.227 234.685 194.111 374.93 183.765" stroke="url(#paint2_linear_3_8461)" stroke-width="3"/>
<path d="M15.6726 219.98C29.996 219.98 42.4713 219.98 56.3328 218.868C169.803 201.144 213.905 104.525 374.508 98.9424" stroke="url(#paint3_linear_3_8461)" stroke-width="3"/>
<path d="M301.142 106.008C301.142 110.606 305.436 114.333 310.733 114.333C316.031 114.333 320.325 110.606 320.325 106.008C320.325 101.41 316.031 97.6826 310.733 97.6826C305.436 97.6826 301.142 101.41 301.142 106.008Z" fill="white"/>
<path fill-rule="evenodd" clip-rule="evenodd" d="M311.111 113.682C307.807 113.682 305.13 110.996 305.13 107.682C305.13 104.369 307.807 101.683 311.111 101.683C314.413 101.683 317.092 104.369 317.092 107.682C317.092 110.996 314.413 113.682 311.111 113.682ZM311.111 117.683C305.605 117.683 301.142 113.205 301.142 107.682C301.142 102.16 305.605 97.6826 311.111 97.6826C316.616 97.6826 321.079 102.16 321.079 107.682C321.079 113.205 316.616 117.683 311.111 117.683Z" fill="#01BB84"/>
<path d="M55.613 214.766C55.613 219.364 59.9072 223.091 65.2042 223.091C70.5013 223.091 74.7953 219.364 74.7953 214.766C74.7953 210.168 70.5013 206.44 65.2042 206.44C59.9072 206.44 55.613 210.168 55.613 214.766Z" fill="white"/>
<path fill-rule="evenodd" clip-rule="evenodd" d="M65.5813 222.44C62.2781 222.44 59.6004 219.754 59.6004 216.44C59.6004 213.127 62.2781 210.44 65.5813 210.44C68.8845 210.44 71.5623 213.127 71.5623 216.44C71.5623 219.754 68.8845 222.44 65.5813 222.44ZM65.5813 226.44C60.076 226.44 55.613 221.963 55.613 216.44C55.613 210.917 60.076 206.44 65.5813 206.44C71.0867 206.44 75.5496 210.917 75.5496 216.44C75.5496 221.963 71.0867 226.44 65.5813 226.44Z" fill="#FF5858"/>
<path d="M301.142 189.523C301.142 194.121 305.436 197.848 310.733 197.848C316.031 197.848 320.325 194.121 320.325 189.523C320.325 184.925 316.031 181.198 310.733 181.198C305.436 181.198 301.142 184.925 301.142 189.523Z" fill="white"/>
<path fill-rule="evenodd" clip-rule="evenodd" d="M311.111 196.198C307.807 196.198 305.13 193.512 305.13 190.198C305.13 186.885 307.807 184.198 311.111 184.198C314.414 184.198 317.092 186.885 317.092 190.198C317.092 193.512 314.414 196.198 311.111 196.198ZM311.111 200.198C305.605 200.198 301.142 195.721 301.142 190.198C301.142 184.675 305.605 180.198 311.111 180.198C316.616 180.198 321.079 184.675 321.079 190.198C321.079 195.721 316.616 200.198 311.111 200.198Z" fill="#FFB771"/>
<g filter="url(#filter3_dd_3_8461)">
<mask id="path-31-inside-3_3_8461" fill="white">
<path d="M260.233 140C260.233 135.582 263.815 132 268.233 132H355.233C359.652 132 363.233 135.582 363.233 140V155C363.233 159.418 359.652 163 355.233 163H268.233C263.815 163 260.233 159.418 260.233 155V140Z"/>
</mask>
<path d="M260.233 140C260.233 135.582 263.815 132 268.233 132H355.233C359.652 132 363.233 135.582 363.233 140V155C363.233 159.418 359.652 163 355.233 163H268.233C263.815 163 260.233 159.418 260.233 155V140Z" fill="white" shape-rendering="crispEdges"/>
<path d="M268.233 132V133H355.233V132V131H268.233V132ZM363.233 140H362.233V155H363.233H364.233V140H363.233ZM355.233 163V162H268.233V163V164H355.233V163ZM260.233 155H261.233V140H260.233H259.233V155H260.233ZM268.233 163V162C264.367 162 261.233 158.866 261.233 155H260.233H259.233C259.233 159.971 263.263 164 268.233 164V163ZM363.233 155H362.233C362.233 158.866 359.099 162 355.233 162V163V164C360.204 164 364.233 159.971 364.233 155H363.233ZM355.233 132V133C359.099 133 362.233 136.134 362.233 140H363.233H364.233C364.233 135.029 360.204 131 355.233 131V132ZM268.233 132V131C263.263 131 259.233 135.029 259.233 140H260.233H261.233C261.233 136.134 264.367 133 268.233 133V132Z" fill="#CEDDFF" mask="url(#path-31-inside-3_3_8461)"/>
<path d="M311.233 157.05L316.89 162.707L311.233 168.364L305.577 162.707L311.233 157.05Z" fill="white"/>
<path fill-rule="evenodd" clip-rule="evenodd" d="M305.577 162.707L311.233 168.364L316.89 162.707L316.183 162L311.233 166.95L306.284 162L305.577 162.707Z" fill="#CEDDFF"/>
<path d="M274.215 152H272.527L275.6 143.273H277.552L280.628 152H278.941L276.61 145.062H276.542L274.215 152ZM274.27 148.578H278.873V149.848H274.27V148.578ZM286.736 145.455L284.405 152H282.7L280.369 145.455H282.014L283.519 150.317H283.587L285.095 145.455H286.736ZM290.478 152.128C289.822 152.128 289.255 151.991 288.778 151.719C288.304 151.443 287.939 151.054 287.683 150.551C287.427 150.045 287.299 149.45 287.299 148.766C287.299 148.092 287.427 147.501 287.683 146.993C287.941 146.482 288.302 146.084 288.765 145.8C289.228 145.513 289.772 145.369 290.397 145.369C290.801 145.369 291.182 145.435 291.54 145.565C291.9 145.693 292.218 145.892 292.494 146.162C292.772 146.432 292.991 146.776 293.15 147.193C293.309 147.608 293.389 148.102 293.389 148.676V149.149H288.024V148.109H291.91C291.907 147.814 291.843 147.551 291.718 147.321C291.593 147.088 291.419 146.905 291.194 146.771C290.973 146.638 290.714 146.571 290.419 146.571C290.103 146.571 289.826 146.648 289.588 146.801C289.349 146.952 289.163 147.151 289.03 147.398C288.899 147.642 288.832 147.911 288.829 148.203V149.111C288.829 149.491 288.899 149.818 289.038 150.091C289.177 150.361 289.372 150.568 289.622 150.713C289.872 150.855 290.165 150.926 290.5 150.926C290.724 150.926 290.927 150.895 291.109 150.832C291.291 150.767 291.449 150.672 291.582 150.547C291.716 150.422 291.816 150.267 291.885 150.082L293.325 150.244C293.234 150.625 293.061 150.957 292.805 151.241C292.552 151.523 292.228 151.741 291.834 151.898C291.439 152.051 290.987 152.128 290.478 152.128ZM294.694 152V145.455H296.19V146.545H296.258C296.377 146.168 296.582 145.876 296.872 145.672C297.164 145.464 297.498 145.361 297.873 145.361C297.958 145.361 298.053 145.365 298.158 145.374C298.266 145.379 298.356 145.389 298.427 145.403V146.822C298.362 146.8 298.258 146.78 298.116 146.763C297.977 146.743 297.842 146.733 297.711 146.733C297.43 146.733 297.177 146.794 296.953 146.916C296.731 147.036 296.556 147.202 296.428 147.415C296.301 147.628 296.237 147.874 296.237 148.152V152H294.694ZM301.218 152.132C300.803 152.132 300.43 152.058 300.097 151.911C299.768 151.76 299.506 151.538 299.313 151.246C299.123 150.953 299.028 150.592 299.028 150.163C299.028 149.794 299.096 149.489 299.232 149.247C299.369 149.006 299.555 148.812 299.791 148.668C300.026 148.523 300.292 148.413 300.587 148.339C300.886 148.263 301.194 148.207 301.512 148.173C301.896 148.134 302.207 148.098 302.445 148.067C302.684 148.033 302.857 147.982 302.965 147.913C303.076 147.842 303.131 147.733 303.131 147.585V147.56C303.131 147.239 303.036 146.99 302.846 146.814C302.656 146.638 302.381 146.55 302.024 146.55C301.646 146.55 301.346 146.632 301.124 146.797C300.906 146.962 300.758 147.156 300.681 147.381L299.241 147.176C299.354 146.778 299.542 146.446 299.803 146.179C300.065 145.909 300.384 145.707 300.762 145.574C301.14 145.438 301.558 145.369 302.015 145.369C302.33 145.369 302.644 145.406 302.957 145.48C303.269 145.554 303.555 145.676 303.813 145.847C304.072 146.014 304.279 146.243 304.435 146.533C304.595 146.822 304.674 147.185 304.674 147.619V152H303.191V151.101H303.14C303.046 151.283 302.914 151.453 302.744 151.612C302.576 151.768 302.364 151.895 302.109 151.991C301.856 152.085 301.559 152.132 301.218 152.132ZM301.619 150.999C301.928 150.999 302.197 150.937 302.424 150.815C302.651 150.69 302.826 150.526 302.948 150.321C303.073 150.116 303.136 149.893 303.136 149.652V148.881C303.087 148.92 303.005 148.957 302.889 148.991C302.775 149.026 302.647 149.055 302.505 149.081C302.363 149.107 302.222 149.129 302.083 149.149C301.944 149.169 301.823 149.186 301.721 149.2C301.491 149.232 301.285 149.283 301.103 149.354C300.921 149.425 300.778 149.524 300.673 149.652C300.568 149.777 300.515 149.939 300.515 150.138C300.515 150.422 300.619 150.636 300.826 150.781C301.033 150.926 301.298 150.999 301.619 150.999ZM309.072 154.591C308.518 154.591 308.042 154.516 307.644 154.365C307.247 154.217 306.927 154.018 306.685 153.768C306.444 153.518 306.276 153.241 306.183 152.938L307.572 152.601C307.634 152.729 307.725 152.855 307.845 152.98C307.964 153.108 308.124 153.213 308.326 153.295C308.531 153.381 308.788 153.423 309.097 153.423C309.535 153.423 309.897 153.317 310.184 153.104C310.471 152.893 310.614 152.547 310.614 152.064V150.824H310.538C310.458 150.983 310.342 151.146 310.188 151.314C310.038 151.482 309.837 151.622 309.587 151.736C309.34 151.849 309.029 151.906 308.654 151.906C308.151 151.906 307.695 151.788 307.286 151.553C306.88 151.314 306.556 150.959 306.315 150.487C306.076 150.013 305.957 149.419 305.957 148.706C305.957 147.987 306.076 147.381 306.315 146.886C306.556 146.389 306.881 146.013 307.291 145.757C307.7 145.499 308.156 145.369 308.658 145.369C309.042 145.369 309.357 145.435 309.604 145.565C309.854 145.693 310.053 145.848 310.201 146.03C310.349 146.209 310.461 146.378 310.538 146.537H310.623V145.455H312.144V152.107C312.144 152.666 312.011 153.129 311.744 153.496C311.477 153.862 311.112 154.136 310.649 154.318C310.185 154.5 309.66 154.591 309.072 154.591ZM309.085 150.696C309.411 150.696 309.69 150.616 309.92 150.457C310.15 150.298 310.325 150.07 310.444 149.771C310.563 149.473 310.623 149.115 310.623 148.697C310.623 148.286 310.563 147.925 310.444 147.615C310.328 147.305 310.154 147.065 309.924 146.895C309.697 146.722 309.417 146.635 309.085 146.635C308.741 146.635 308.454 146.724 308.224 146.903C307.994 147.082 307.82 147.328 307.704 147.641C307.587 147.95 307.529 148.303 307.529 148.697C307.529 149.098 307.587 149.449 307.704 149.75C307.823 150.048 307.998 150.281 308.228 150.449C308.461 150.614 308.747 150.696 309.085 150.696ZM316.623 152.128C315.967 152.128 315.4 151.991 314.923 151.719C314.448 151.443 314.083 151.054 313.828 150.551C313.572 150.045 313.444 149.45 313.444 148.766C313.444 148.092 313.572 147.501 313.828 146.993C314.086 146.482 314.447 146.084 314.91 145.8C315.373 145.513 315.917 145.369 316.542 145.369C316.945 145.369 317.326 145.435 317.684 145.565C318.045 145.693 318.363 145.892 318.639 146.162C318.917 146.432 319.136 146.776 319.295 147.193C319.454 147.608 319.533 148.102 319.533 148.676V149.149H314.168V148.109H318.055C318.052 147.814 317.988 147.551 317.863 147.321C317.738 147.088 317.563 146.905 317.339 146.771C317.117 146.638 316.859 146.571 316.563 146.571C316.248 146.571 315.971 146.648 315.732 146.801C315.494 146.952 315.308 147.151 315.174 147.398C315.043 147.642 314.977 147.911 314.974 148.203V149.111C314.974 149.491 315.043 149.818 315.183 150.091C315.322 150.361 315.516 150.568 315.766 150.713C316.016 150.855 316.309 150.926 316.644 150.926C316.869 150.926 317.072 150.895 317.254 150.832C317.435 150.767 317.593 150.672 317.727 150.547C317.86 150.422 317.961 150.267 318.029 150.082L319.47 150.244C319.379 150.625 319.205 150.957 318.95 151.241C318.697 151.523 318.373 151.741 317.978 151.898C317.583 152.051 317.131 152.128 316.623 152.128ZM329.385 143.273H330.966V148.974C330.966 149.599 330.818 150.149 330.522 150.624C330.23 151.098 329.818 151.469 329.287 151.736C328.755 152 328.135 152.132 327.424 152.132C326.711 152.132 326.089 152 325.558 151.736C325.027 151.469 324.615 151.098 324.322 150.624C324.03 150.149 323.883 149.599 323.883 148.974V143.273H325.464V148.842C325.464 149.206 325.544 149.53 325.703 149.814C325.865 150.098 326.092 150.321 326.385 150.483C326.677 150.642 327.024 150.722 327.424 150.722C327.825 150.722 328.172 150.642 328.464 150.483C328.76 150.321 328.987 150.098 329.146 149.814C329.305 149.53 329.385 149.206 329.385 148.842V143.273ZM337.789 147.185L336.383 147.338C336.343 147.196 336.274 147.062 336.174 146.938C336.078 146.812 335.947 146.712 335.782 146.635C335.617 146.558 335.416 146.52 335.177 146.52C334.856 146.52 334.586 146.589 334.367 146.729C334.151 146.868 334.045 147.048 334.048 147.27C334.045 147.46 334.114 147.615 334.256 147.734C334.401 147.854 334.64 147.952 334.972 148.028L336.089 148.267C336.708 148.401 337.168 148.612 337.47 148.902C337.774 149.192 337.927 149.571 337.93 150.04C337.927 150.452 337.806 150.815 337.568 151.131C337.332 151.443 337.004 151.687 336.583 151.864C336.163 152.04 335.68 152.128 335.134 152.128C334.333 152.128 333.688 151.96 333.2 151.625C332.711 151.287 332.42 150.817 332.326 150.214L333.83 150.07C333.899 150.365 334.043 150.588 334.265 150.739C334.487 150.889 334.775 150.964 335.13 150.964C335.497 150.964 335.791 150.889 336.012 150.739C336.237 150.588 336.349 150.402 336.349 150.18C336.349 149.993 336.276 149.838 336.131 149.716C335.989 149.594 335.768 149.5 335.467 149.435L334.35 149.2C333.722 149.07 333.258 148.849 332.957 148.54C332.656 148.227 332.506 147.832 332.509 147.355C332.506 146.952 332.616 146.602 332.837 146.307C333.062 146.009 333.373 145.778 333.771 145.616C334.171 145.452 334.633 145.369 335.156 145.369C335.923 145.369 336.526 145.533 336.967 145.859C337.41 146.186 337.684 146.628 337.789 147.185ZM342.1 152.128C341.443 152.128 340.877 151.991 340.399 151.719C339.925 151.443 339.56 151.054 339.304 150.551C339.048 150.045 338.921 149.45 338.921 148.766C338.921 148.092 339.048 147.501 339.304 146.993C339.563 146.482 339.923 146.084 340.386 145.8C340.85 145.513 341.394 145.369 342.019 145.369C342.422 145.369 342.803 145.435 343.161 145.565C343.521 145.693 343.84 145.892 344.115 146.162C344.394 146.432 344.612 146.776 344.771 147.193C344.93 147.608 345.01 148.102 345.01 148.676V149.149H339.645V148.109H343.531C343.528 147.814 343.465 147.551 343.34 147.321C343.215 147.088 343.04 146.905 342.815 146.771C342.594 146.638 342.335 146.571 342.04 146.571C341.725 146.571 341.448 146.648 341.209 146.801C340.97 146.952 340.784 147.151 340.651 147.398C340.52 147.642 340.453 147.911 340.45 148.203V149.111C340.45 149.491 340.52 149.818 340.659 150.091C340.798 150.361 340.993 150.568 341.243 150.713C341.493 150.855 341.786 150.926 342.121 150.926C342.345 150.926 342.548 150.895 342.73 150.832C342.912 150.767 343.07 150.672 343.203 150.547C343.337 150.422 343.438 150.267 343.506 150.082L344.946 150.244C344.855 150.625 344.682 150.957 344.426 151.241C344.173 151.523 343.85 151.741 343.455 151.898C343.06 152.051 342.608 152.128 342.1 152.128ZM346.315 152V145.455H347.811V146.545H347.879C347.998 146.168 348.203 145.876 348.493 145.672C348.785 145.464 349.119 145.361 349.494 145.361C349.579 145.361 349.674 145.365 349.78 145.374C349.888 145.379 349.977 145.389 350.048 145.403V146.822C349.983 146.8 349.879 146.78 349.737 146.763C349.598 146.743 349.463 146.733 349.332 146.733C349.051 146.733 348.798 146.794 348.574 146.916C348.352 147.036 348.177 147.202 348.049 147.415C347.922 147.628 347.858 147.874 347.858 148.152V152H346.315Z" fill="#6B7280"/>
</g>
</g>
</g>
<defs>
<filter id="filter0_d_3_8461" x="-11.7095" y="0" width="413.429" height="303" filterUnits="userSpaceOnUse" color-interpolation-filters="sRGB">
<feFlood flood-opacity="0" result="BackgroundImageFix"/>
<feColorMatrix in="SourceAlpha" type="matrix" values="0 0 0 0 0 0 0 0 0 0 0 0 0 0 0 0 0 0 127 0" result="hardAlpha"/>
<feOffset dy="2"/>
<feGaussianBlur stdDeviation="13.5"/>
<feComposite in2="hardAlpha" operator="out"/>
<feColorMatrix type="matrix" values="0 0 0 0 0.188235 0 0 0 0 0.443137 0 0 0 0 1 0 0 0 0.1 0"/>
<feBlend mode="normal" in2="BackgroundImageFix" result="effect1_dropShadow_3_8461"/>
<feBlend mode="normal" in="SourceGraphic" in2="effect1_dropShadow_3_8461" result="shape"/>
</filter>
<filter id="filter1_dd_3_8461" x="36.7109" y="154.833" width="59" height="44.3638" filterUnits="userSpaceOnUse" color-interpolation-filters="sRGB">
<feFlood flood-opacity="0" result="BackgroundImageFix"/>
<feColorMatrix in="SourceAlpha" type="matrix" values="0 0 0 0 0 0 0 0 0 0 0 0 0 0 0 0 0 0 127 0" result="hardAlpha"/>
<feOffset dy="1"/>
<feGaussianBlur stdDeviation="2"/>
<feComposite in2="hardAlpha" operator="out"/>
<feColorMatrix type="matrix" values="0 0 0 0 0.0470588 0 0 0 0 0.0470588 0 0 0 0 0.0509804 0 0 0 0.05 0"/>
<feBlend mode="normal" in2="BackgroundImageFix" result="effect1_dropShadow_3_8461"/>
<feColorMatrix in="SourceAlpha" type="matrix" values="0 0 0 0 0 0 0 0 0 0 0 0 0 0 0 0 0 0 127 0" result="hardAlpha"/>
<feOffset dy="1"/>
<feGaussianBlur stdDeviation="2"/>
<feComposite in2="hardAlpha" operator="out"/>
<feColorMatrix type="matrix" values="0 0 0 0 0.0470588 0 0 0 0 0.0470588 0 0 0 0 0.0509804 0 0 0 0.1 0"/>
<feBlend mode="normal" in2="effect1_dropShadow_3_8461" result="effect2_dropShadow_3_8461"/>
<feBlend mode="normal" in="SourceGraphic" in2="effect2_dropShadow_3_8461" result="shape"/>
</filter>
<filter id="filter2_dd_3_8461" x="273.051" y="46.6692" width="76" height="44.3638" filterUnits="userSpaceOnUse" color-interpolation-filters="sRGB">
<feFlood flood-opacity="0" result="BackgroundImageFix"/>
<feColorMatrix in="SourceAlpha" type="matrix" values="0 0 0 0 0 0 0 0 0 0 0 0 0 0 0 0 0 0 127 0" result="hardAlpha"/>
<feOffset dy="1"/>
<feGaussianBlur stdDeviation="2"/>
<feComposite in2="hardAlpha" operator="out"/>
<feColorMatrix type="matrix" values="0 0 0 0 0.0470588 0 0 0 0 0.0470588 0 0 0 0 0.0509804 0 0 0 0.05 0"/>
<feBlend mode="normal" in2="BackgroundImageFix" result="effect1_dropShadow_3_8461"/>
<feColorMatrix in="SourceAlpha" type="matrix" values="0 0 0 0 0 0 0 0 0 0 0 0 0 0 0 0 0 0 127 0" result="hardAlpha"/>
<feOffset dy="1"/>
<feGaussianBlur stdDeviation="2"/>
<feComposite in2="hardAlpha" operator="out"/>
<feColorMatrix type="matrix" values="0 0 0 0 0.0470588 0 0 0 0 0.0470588 0 0 0 0 0.0509804 0 0 0 0.1 0"/>
<feBlend mode="normal" in2="effect1_dropShadow_3_8461" result="effect2_dropShadow_3_8461"/>
<feBlend mode="normal" in="SourceGraphic" in2="effect2_dropShadow_3_8461" result="shape"/>
</filter>
<filter id="filter3_dd_3_8461" x="256.233" y="129" width="111" height="44.3638" filterUnits="userSpaceOnUse" color-interpolation-filters="sRGB">
<feFlood flood-opacity="0" result="BackgroundImageFix"/>
<feColorMatrix in="SourceAlpha" type="matrix" values="0 0 0 0 0 0 0 0 0 0 0 0 0 0 0 0 0 0 127 0" result="hardAlpha"/>
<feOffset dy="1"/>
<feGaussianBlur stdDeviation="2"/>
<feComposite in2="hardAlpha" operator="out"/>
<feColorMatrix type="matrix" values="0 0 0 0 0.0470588 0 0 0 0 0.0470588 0 0 0 0 0.0509804 0 0 0 0.05 0"/>
<feBlend mode="normal" in2="BackgroundImageFix" result="effect1_dropShadow_3_8461"/>
<feColorMatrix in="SourceAlpha" type="matrix" values="0 0 0 0 0 0 0 0 0 0 0 0 0 0 0 0 0 0 127 0" result="hardAlpha"/>
<feOffset dy="1"/>
<feGaussianBlur stdDeviation="2"/>
<feComposite in2="hardAlpha" operator="out"/>
<feColorMatrix type="matrix" values="0 0 0 0 0.0470588 0 0 0 0 0.0470588 0 0 0 0 0.0509804 0 0 0 0.1 0"/>
<feBlend mode="normal" in2="effect1_dropShadow_3_8461" result="effect2_dropShadow_3_8461"/>
<feBlend mode="normal" in="SourceGraphic" in2="effect2_dropShadow_3_8461" result="shape"/>
</filter>
<linearGradient id="paint0_linear_3_8461" x1="413.447" y1="320.207" x2="7.03003" y2="168.848" gradientUnits="userSpaceOnUse">
<stop offset="0.092378" stop-color="#0040FF"/>
<stop offset="1" stop-color="#E3ECFF"/>
</linearGradient>
<linearGradient id="paint1_linear_3_8461" x1="5.92792" y1="5.0574" x2="329.921" y2="288.695" gradientUnits="userSpaceOnUse">
<stop stop-color="#E3ECFF"/>
<stop offset="1" stop-color="white"/>
</linearGradient>
<linearGradient id="paint2_linear_3_8461" x1="15.5024" y1="201.788" x2="374.93" y2="201.788" gradientUnits="userSpaceOnUse">
<stop stop-color="#FD1F1F"/>
<stop offset="1" stop-color="#FFCE5B"/>
</linearGradient>
<linearGradient id="paint3_linear_3_8461" x1="15.6726" y1="219.981" x2="377.205" y2="101.86" gradientUnits="userSpaceOnUse">
<stop stop-color="#FD1F1F"/>
<stop offset="0.408654" stop-color="#FFC056"/>
<stop offset="0.668269" stop-color="#C5F13F"/>
<stop offset="1" stop-color="#01BB84"/>
</linearGradient>
<clipPath id="clip0_3_8461">
<rect x="15.2905" y="25" width="359.429" height="249" rx="12" fill="white"/>
</clipPath>
</defs>
</svg>
